<?xml version="1.0" encoding="UTF-8" standalone="no"?>
<svg
   xmlns:dc="http://purl.org/dc/elements/1.1/"
   xmlns:cc="http://creativecommons.org/ns#"
   xmlns:rdf="http://www.w3.org/1999/02/22-rdf-syntax-ns#"
   xmlns:svg="http://www.w3.org/2000/svg"
   xmlns="http://www.w3.org/2000/svg"
   xmlns:xlink="http://www.w3.org/1999/xlink"
   xmlns:sodipodi="http://sodipodi.sourceforge.net/DTD/sodipodi-0.dtd"
   xmlns:inkscape="http://www.inkscape.org/namespaces/inkscape"
   width="500mm"
   height="100mm"
   viewBox="0 0 500 100"
   version="1.1"
   id="svg16863"
   inkscape:version="1.0.2 (e86c8708, 2021-01-15)"
   sodipodi:docname="objective.svg">
  <defs
     id="defs16857">
    <linearGradient
       inkscape:collect="always"
       id="linearGradient31706">
      <stop
         style="stop-color:#ffe7a8;stop-opacity:1"
         offset="0"
         id="stop31702" />
      <stop
         style="stop-color:#ffd6d8;stop-opacity:0;"
         offset="1"
         id="stop31704" />
    </linearGradient>
    <linearGradient
       inkscape:collect="always"
       id="linearGradient31641">
      <stop
         style="stop-color:#ffd6d8;stop-opacity:1"
         offset="0"
         id="stop31637" />
      <stop
         style="stop-color:#ffd6d8;stop-opacity:0;"
         offset="1"
         id="stop31639" />
    </linearGradient>
    <linearGradient
       inkscape:collect="always"
       xlink:href="#linearGradient31641"
       id="linearGradient31643"
       x1="20.088335"
       y1="64.630577"
       x2="19.597784"
       y2="103.5957"
       gradientUnits="userSpaceOnUse" />
    <linearGradient
       inkscape:collect="always"
       xlink:href="#linearGradient31706"
       id="linearGradient31643-1"
       x1="19.597784"
       y1="64.630577"
       x2="19.597784"
       y2="103.5957"
       gradientUnits="userSpaceOnUse" />
  </defs>
  <sodipodi:namedview
     id="base"
     pagecolor="#ffffff"
     bordercolor="#666666"
     borderopacity="1.0"
     inkscape:pageopacity="0.0"
     inkscape:pageshadow="2"
     inkscape:zoom="0.40557261"
     inkscape:cx="765.34941"
     inkscape:cy="98.777235"
     inkscape:document-units="mm"
     inkscape:current-layer="layer1"
     inkscape:document-rotation="0"
     showgrid="false"
     width="500mm"
     inkscape:window-width="1440"
     inkscape:window-height="847"
     inkscape:window-x="0"
     inkscape:window-y="25"
     inkscape:window-maximized="0" />
  <metadata
     id="metadata16860">
    <rdf:RDF>
      <cc:Work
         rdf:about="">
        <dc:format>image/svg+xml</dc:format>
        <dc:type
           rdf:resource="http://purl.org/dc/dcmitype/StillImage" />
        <dc:title></dc:title>
      </cc:Work>
    </rdf:RDF>
  </metadata>
  <g
     inkscape:label="Layer 1"
     inkscape:groupmode="layer"
     id="layer1">
    <rect
       style="fill:#ffe7a8;fill-opacity:1;stroke:#071159;stroke-width:0;stroke-miterlimit:4;stroke-dasharray:none"
       id="rect31611-3"
       width="72.795708"
       height="21.110109"
       x="188.71399"
       y="33.816631" />
    <rect
       style="fill:#ffd6d8;fill-opacity:1;stroke:#071159;stroke-width:0;stroke-miterlimit:4;stroke-dasharray:none"
       id="rect31611"
       width="61.931793"
       height="21.110109"
       x="18.535442"
       y="35.022789" />
    <text
       xml:space="preserve"
       style="font-style:italic;font-size:14.3512px;line-height:1.25;font-family:Mulish;-inkscape-font-specification:'Mulish Italic';stroke-width:0.336357"
       x="6.536037"
       y="18.784243"
       id="text31583"><tspan
         sodipodi:role="line"
         id="tspan31581"
         x="6.536037"
         y="18.784243"
         style="fill:#4d4d4d;stroke-width:0.336357">After following this lesson, learners should be able to...</tspan></text>
    <g
       aria-label="import data into an indexed DataFrame with read_csv"
       id="text31583-5"
       style="font-style:italic;font-variant:normal;font-weight:bold;font-stretch:normal;font-size:17.9391px;line-height:1.25;font-family:Mulish;-inkscape-font-specification:'Mulish Bold Italic';stroke-width:0.336357">
      <path
         d="M 21.829312,41.280095 H 24.0717 l -0.717564,9.059245 h -2.242388 z m 2.672926,-4.108054 -0.161452,2.206509 h -2.493535 l 0.161452,-2.206509 z"
         style="font-style:italic;font-variant:normal;font-weight:bold;font-stretch:normal;font-size:17.9391px;font-family:Mulish;-inkscape-font-specification:'Mulish Bold Italic';stroke-width:0.336357"
         id="path903" />
      <path
         d="m 37.10838,41.046886 q 1.435128,0 2.170631,0.825199 0.735503,0.825198 0.735503,2.403839 0,0.358782 -0.01794,0.538173 l -0.430538,5.525243 h -2.242388 l 0.430539,-5.453486 q 0.01794,-0.143513 0.01794,-0.4126 0,-0.843137 -0.358782,-1.237797 -0.358782,-0.4126 -1.094285,-0.4126 -0.932834,0 -1.488946,0.627869 -0.538173,0.627868 -0.627868,1.865666 l -0.39466,5.022948 h -2.242388 l 0.430539,-5.417608 q 0.01794,-0.143513 0.01794,-0.39466 0,-0.861077 -0.358782,-1.273676 -0.358782,-0.430539 -1.094285,-0.430539 -0.950773,0 -1.488946,0.627869 -0.538173,0.627868 -0.627868,1.865666 l -0.394661,5.022948 h -2.242387 l 0.520234,-6.493954 q 0.07176,-1.219859 0.07176,-1.847727 0,-0.484356 -0.01794,-0.717564 h 2.098875 l 0.03588,1.291615 q 0.986651,-1.524824 2.888195,-1.524824 1.00459,0 1.668337,0.4126 0.681685,0.412599 0.968711,1.201919 0.502295,-0.771381 1.291615,-1.18398 0.80726,-0.430539 1.775971,-0.430539 z"
         style="font-style:italic;font-variant:normal;font-weight:bold;font-stretch:normal;font-size:17.9391px;font-family:Mulish;-inkscape-font-specification:'Mulish Bold Italic';stroke-width:0.336357"
         id="path905" />
      <path
         d="m 47.610603,41.046886 q 1.130164,0 2.00918,0.538173 0.879016,0.520234 1.363371,1.524824 0.484356,0.98665 0.484356,2.314144 0,1.488945 -0.538173,2.637047 -0.538173,1.148103 -1.524823,1.793911 -0.968712,0.627868 -2.242388,0.627868 -0.986651,0 -1.722154,-0.39466 -0.735503,-0.412599 -1.166041,-1.148103 l -0.430539,5.274096 h -2.224448 l 0.825199,-10.3688 q 0.07176,-0.735503 0.07176,-1.704215 0,-0.574051 -0.01794,-0.861076 h 2.098875 l 0.03588,1.38131 q 0.430538,-0.753442 1.219859,-1.18398 0.78932,-0.430539 1.758031,-0.430539 z m -0.825198,7.695874 q 1.148102,0 1.775971,-0.843137 0.645807,-0.861077 0.645807,-2.367962 0,-1.327493 -0.609929,-2.027118 -0.59199,-0.717564 -1.686275,-0.717564 -1.130164,0 -1.775971,0.879016 -0.645808,0.861077 -0.645808,2.332083 0,1.345432 0.59199,2.045057 0.591991,0.699625 1.704215,0.699625 z"
         style="font-style:italic;font-variant:normal;font-weight:bold;font-stretch:normal;font-size:17.9391px;font-family:Mulish;-inkscape-font-specification:'Mulish Bold Italic';stroke-width:0.336357"
         id="path907" />
      <path
         d="m 57.425813,50.482853 q -1.381311,0 -2.403839,-0.538173 -1.022529,-0.556112 -1.578641,-1.560702 -0.556112,-1.004589 -0.556112,-2.350022 0,-1.506884 0.574051,-2.637048 0.59199,-1.130163 1.650397,-1.740092 1.058407,-0.60993 2.457657,-0.60993 1.363372,0 2.3859,0.556112 1.022529,0.556112 1.560702,1.560702 0.556112,1.00459 0.556112,2.332083 0,1.524824 -0.574051,2.654987 -0.574051,1.130163 -1.632458,1.740093 -1.040468,0.59199 -2.439718,0.59199 z m 0,-1.740093 q 1.183981,0 1.79391,-0.896955 0.627869,-0.914894 0.627869,-2.421778 0,-1.273676 -0.591991,-1.955362 -0.574051,-0.681686 -1.668336,-0.681686 -1.20192,0 -1.829788,0.914894 -0.627869,0.896955 -0.627869,2.3859 0,2.654987 2.296205,2.654987 z"
         style="font-style:italic;font-variant:normal;font-weight:bold;font-stretch:normal;font-size:17.9391px;font-family:Mulish;-inkscape-font-specification:'Mulish Bold Italic';stroke-width:0.336357"
         id="path909" />
      <path
         d="m 69.244037,41.064825 q 0.538173,0 0.914894,0.143513 l -0.179391,2.027119 q -0.502294,-0.21527 -1.166041,-0.21527 -1.166042,0 -1.811849,0.663747 -0.645808,0.645808 -0.717564,1.758032 l -0.394661,4.897374 h -2.242387 l 0.520234,-6.493954 q 0.07176,-1.219859 0.07176,-1.847727 0,-0.484356 -0.01794,-0.717564 h 2.098875 l 0.03588,1.38131 q 0.39466,-0.753442 1.166042,-1.166041 0.78932,-0.430539 1.722153,-0.430539 z"
         style="font-style:italic;font-variant:normal;font-weight:bold;font-stretch:normal;font-size:17.9391px;font-family:Mulish;-inkscape-font-specification:'Mulish Bold Italic';stroke-width:0.336357"
         id="path911" />
      <path
         d="m 74.651834,47.020607 q -0.125574,1.59658 1.345432,1.59658 0.4126,0 0.932833,-0.125574 l -0.143512,1.758032 q -0.591991,0.215269 -1.471007,0.215269 -1.417188,0 -2.170631,-0.735503 -0.753442,-0.753442 -0.753442,-2.170631 0,-0.269087 0.01794,-0.4126 l 0.322904,-4.17981 h -1.740093 l 0.143513,-1.686275 h 1.722154 l 0.179391,-2.20651 2.296205,-0.753442 -0.233209,2.959952 h 2.421779 l -0.143513,1.686275 h -2.403839 z"
         style="font-style:italic;font-variant:normal;font-weight:bold;font-stretch:normal;font-size:17.9391px;font-family:Mulish;-inkscape-font-specification:'Mulish Bold Italic';stroke-width:0.336357"
         id="path913" />
      <path
         d="M 92.955884,37.136162 91.897477,50.33934 h -2.206509 l 0.107634,-1.273676 q -0.448477,0.663747 -1.201919,1.040468 -0.753443,0.376721 -1.650398,0.376721 -1.130163,0 -2.009179,-0.520234 -0.879016,-0.538173 -1.363372,-1.524823 -0.484355,-0.986651 -0.484355,-2.314144 0,-1.488946 0.538173,-2.637048 0.538173,-1.166042 1.506884,-1.79391 0.986651,-0.645808 2.260327,-0.645808 0.98665,0 1.722153,0.39466 0.753443,0.394661 1.166042,1.148103 l 0.430538,-5.453487 z M 87.663849,48.74276 q 1.112225,0 1.758032,-0.861077 0.645808,-0.861076 0.645808,-2.332083 0,-1.345432 -0.591991,-2.045057 -0.59199,-0.717564 -1.686275,-0.717564 -1.148102,0 -1.811849,0.861077 -0.645808,0.861077 -0.645808,2.350022 0,1.309554 0.60993,2.027118 0.609929,0.717564 1.722153,0.717564 z"
         style="font-style:italic;font-variant:normal;font-weight:bold;font-stretch:normal;font-size:17.9391px;font-family:Mulish;-inkscape-font-specification:'Mulish Bold Italic';stroke-width:0.336357"
         id="path915" />
      <path
         d="m 103.72186,41.280095 -0.71756,9.059245 h -2.20651 l 0.10764,-1.255737 q -0.46642,0.663747 -1.219864,1.040468 -0.735503,0.358782 -1.614519,0.358782 -1.148102,0 -2.027118,-0.520234 -0.861077,-0.538173 -1.345432,-1.524823 -0.484356,-1.00459 -0.484356,-2.332083 0,-1.488946 0.538173,-2.637048 0.538173,-1.148103 1.506884,-1.775971 0.968712,-0.645808 2.242388,-0.645808 1.004589,0 1.740094,0.4126 0.75344,0.412599 1.16604,1.166041 l 0.10763,-1.345432 z m -4.951188,7.462665 q 1.112224,0 1.758028,-0.861077 0.64581,-0.861076 0.64581,-2.332083 0,-1.345432 -0.59199,-2.045057 -0.591989,-0.717564 -1.686274,-0.717564 -1.148102,0 -1.79391,0.861077 -0.645808,0.861077 -0.645808,2.367961 0,1.309554 0.591991,2.027118 0.609929,0.699625 1.722153,0.699625 z"
         style="font-style:italic;font-variant:normal;font-weight:bold;font-stretch:normal;font-size:17.9391px;font-family:Mulish;-inkscape-font-specification:'Mulish Bold Italic';stroke-width:0.336357"
         id="path917" />
      <path
         d="m 108.56794,47.020607 q -0.12557,1.59658 1.34544,1.59658 0.4126,0 0.93283,-0.125574 l -0.14351,1.758032 q -0.59199,0.215269 -1.47101,0.215269 -1.41719,0 -2.17063,-0.735503 -0.75344,-0.753442 -0.75344,-2.170631 0,-0.269087 0.0179,-0.4126 l 0.3229,-4.17981 h -1.74009 l 0.14351,-1.686275 h 1.72215 l 0.1794,-2.20651 2.2962,-0.753442 -0.23321,2.959952 h 2.42178 l -0.14351,1.686275 h -2.40384 z"
         style="font-style:italic;font-variant:normal;font-weight:bold;font-stretch:normal;font-size:17.9391px;font-family:Mulish;-inkscape-font-specification:'Mulish Bold Italic';stroke-width:0.336357"
         id="path919" />
      <path
         d="m 121.62593,41.280095 -0.71756,9.059245 h -2.20651 l 0.10763,-1.255737 q -0.46641,0.663747 -1.21986,1.040468 -0.7355,0.358782 -1.61451,0.358782 -1.14811,0 -2.02712,-0.520234 -0.86108,-0.538173 -1.34544,-1.524823 -0.48435,-1.00459 -0.48435,-2.332083 0,-1.488946 0.53817,-2.637048 0.53817,-1.148103 1.50689,-1.775971 0.96871,-0.645808 2.24238,-0.645808 1.00459,0 1.7401,0.4126 0.75344,0.412599 1.16604,1.166041 l 0.10763,-1.345432 z m -4.95119,7.462665 q 1.11222,0 1.75803,-0.861077 0.64581,-0.861076 0.64581,-2.332083 0,-1.345432 -0.59199,-2.045057 -0.59199,-0.717564 -1.68628,-0.717564 -1.1481,0 -1.79391,0.861077 -0.6458,0.861077 -0.6458,2.367961 0,1.309554 0.59199,2.027118 0.60993,0.699625 1.72215,0.699625 z"
         style="font-style:italic;font-variant:normal;font-weight:bold;font-stretch:normal;font-size:17.9391px;font-family:Mulish;-inkscape-font-specification:'Mulish Bold Italic';stroke-width:0.336357"
         id="path921" />
      <path
         d="m 128.97339,41.280095 h 2.24239 l -0.71756,9.059245 h -2.24239 z m 2.67293,-4.108054 -0.16145,2.206509 h -2.49354 l 0.16145,-2.206509 z"
         style="font-style:italic;font-variant:normal;font-weight:bold;font-stretch:normal;font-size:17.9391px;font-family:Mulish;-inkscape-font-specification:'Mulish Bold Italic';stroke-width:0.336357"
         id="path923" />
      <path
         d="m 138.74516,41.046886 q 1.52482,0 2.2962,0.843138 0.78932,0.825199 0.78932,2.421779 0,0.340842 -0.0179,0.520233 l -0.44847,5.507304 h -2.22445 l 0.43054,-5.399669 q 0.0179,-0.125574 0.0179,-0.358782 0,-0.861077 -0.43054,-1.309554 -0.4126,-0.448478 -1.2378,-0.448478 -1.04047,0 -1.63246,0.645808 -0.59199,0.627868 -0.68168,1.740093 l -0.4126,5.130582 h -2.24239 l 0.52023,-6.493954 q 0.0718,-0.735503 0.0718,-1.704215 0,-0.574051 -0.0179,-0.861076 h 2.09887 l 0.0359,1.345432 q 0.46642,-0.753442 1.25574,-1.166041 0.80726,-0.4126 1.82979,-0.4126 z"
         style="font-style:italic;font-variant:normal;font-weight:bold;font-stretch:normal;font-size:17.9391px;font-family:Mulish;-inkscape-font-specification:'Mulish Bold Italic';stroke-width:0.336357"
         id="path925" />
      <path
         d="m 146.89876,47.020607 q -0.12558,1.59658 1.34543,1.59658 0.4126,0 0.93283,-0.125574 l -0.14351,1.758032 q -0.59199,0.215269 -1.47101,0.215269 -1.41719,0 -2.17063,-0.735503 -0.75344,-0.753442 -0.75344,-2.170631 0,-0.269087 0.0179,-0.4126 l 0.3229,-4.17981 h -1.74009 l 0.14351,-1.686275 h 1.72216 l 0.17939,-2.20651 2.2962,-0.753442 -0.23321,2.959952 h 2.42178 l -0.14351,1.686275 h -2.40384 z"
         style="font-style:italic;font-variant:normal;font-weight:bold;font-stretch:normal;font-size:17.9391px;font-family:Mulish;-inkscape-font-specification:'Mulish Bold Italic';stroke-width:0.336357"
         id="path927" />
      <path
         d="m 154.96967,50.482853 q -1.38131,0 -2.40384,-0.538173 -1.02253,-0.556112 -1.57864,-1.560702 -0.55611,-1.004589 -0.55611,-2.350022 0,-1.506884 0.57405,-2.637048 0.59199,-1.130163 1.6504,-1.740092 1.05841,-0.60993 2.45766,-0.60993 1.36337,0 2.3859,0.556112 1.02252,0.556112 1.5607,1.560702 0.55611,1.00459 0.55611,2.332083 0,1.524824 -0.57405,2.654987 -0.57405,1.130163 -1.63246,1.740093 -1.04047,0.59199 -2.43972,0.59199 z m 0,-1.740093 q 1.18398,0 1.79391,-0.896955 0.62787,-0.914894 0.62787,-2.421778 0,-1.273676 -0.59199,-1.955362 -0.57405,-0.681686 -1.66834,-0.681686 -1.20192,0 -1.82978,0.914894 -0.62787,0.896955 -0.62787,2.3859 0,2.654987 2.2962,2.654987 z"
         style="font-style:italic;font-variant:normal;font-weight:bold;font-stretch:normal;font-size:17.9391px;font-family:Mulish;-inkscape-font-specification:'Mulish Bold Italic';stroke-width:0.336357"
         id="path929" />
      <path
         d="m 175.47827,41.280095 -0.71756,9.059245 h -2.20651 l 0.10763,-1.255737 q -0.46641,0.663747 -1.21985,1.040468 -0.73551,0.358782 -1.61452,0.358782 -1.14811,0 -2.02712,-0.520234 -0.86108,-0.538173 -1.34543,-1.524823 -0.48436,-1.00459 -0.48436,-2.332083 0,-1.488946 0.53817,-2.637048 0.53818,-1.148103 1.50689,-1.775971 0.96871,-0.645808 2.24238,-0.645808 1.00459,0 1.7401,0.4126 0.75344,0.412599 1.16604,1.166041 l 0.10763,-1.345432 z m -4.95119,7.462665 q 1.11223,0 1.75803,-0.861077 0.64581,-0.861076 0.64581,-2.332083 0,-1.345432 -0.59199,-2.045057 -0.59199,-0.717564 -1.68628,-0.717564 -1.1481,0 -1.79391,0.861077 -0.6458,0.861077 -0.6458,2.367961 0,1.309554 0.59199,2.027118 0.60993,0.699625 1.72215,0.699625 z"
         style="font-style:italic;font-variant:normal;font-weight:bold;font-stretch:normal;font-size:17.9391px;font-family:Mulish;-inkscape-font-specification:'Mulish Bold Italic';stroke-width:0.336357"
         id="path931" />
      <path
         d="m 182.99728,41.046886 q 1.52482,0 2.2962,0.843138 0.78932,0.825199 0.78932,2.421779 0,0.340842 -0.0179,0.520233 l -0.44848,5.507304 h -2.22445 l 0.43054,-5.399669 q 0.0179,-0.125574 0.0179,-0.358782 0,-0.861077 -0.43054,-1.309554 -0.4126,-0.448478 -1.2378,-0.448478 -1.04047,0 -1.63246,0.645808 -0.59199,0.627868 -0.68168,1.740093 l -0.4126,5.130582 h -2.24239 l 0.52023,-6.493954 q 0.0718,-0.735503 0.0718,-1.704215 0,-0.574051 -0.0179,-0.861076 h 2.09888 l 0.0359,1.345432 q 0.46642,-0.753442 1.25574,-1.166041 0.80726,-0.4126 1.82979,-0.4126 z"
         style="font-style:italic;font-variant:normal;font-weight:bold;font-stretch:normal;font-size:17.9391px;font-family:Mulish;-inkscape-font-specification:'Mulish Bold Italic';stroke-width:0.336357"
         id="path933" />
      <path
         d="m 193.65226,41.280095 h 2.24239 l -0.71756,9.059245 h -2.24239 z m 2.67293,-4.108054 -0.16145,2.206509 h -2.49354 l 0.16146,-2.206509 z"
         style="font-style:italic;font-variant:normal;font-weight:bold;font-stretch:normal;font-size:17.9391px;font-family:Mulish;-inkscape-font-specification:'Mulish Bold Italic';stroke-width:0.336357"
         id="path935" />
      <path
         d="m 203.42402,41.046886 q 1.52483,0 2.29621,0.843138 0.78932,0.825199 0.78932,2.421779 0,0.340842 -0.0179,0.520233 l -0.44848,5.507304 h -2.22445 l 0.43054,-5.399669 q 0.0179,-0.125574 0.0179,-0.358782 0,-0.861077 -0.43054,-1.309554 -0.4126,-0.448478 -1.2378,-0.448478 -1.04046,0 -1.63245,0.645808 -0.592,0.627868 -0.68169,1.740093 l -0.4126,5.130582 h -2.24239 l 0.52024,-6.493954 q 0.0717,-0.735503 0.0717,-1.704215 0,-0.574051 -0.0179,-0.861076 h 2.09888 l 0.0359,1.345432 q 0.46641,-0.753442 1.25573,-1.166041 0.80726,-0.4126 1.82979,-0.4126 z"
         style="font-style:italic;font-variant:normal;font-weight:bold;font-stretch:normal;font-size:17.9391px;font-family:Mulish;-inkscape-font-specification:'Mulish Bold Italic';stroke-width:0.336357"
         id="path937" />
      <path
         d="M 218.17921,37.136162 217.1208,50.33934 h -2.20651 l 0.10764,-1.273676 q -0.44848,0.663747 -1.20192,1.040468 -0.75345,0.376721 -1.6504,0.376721 -1.13016,0 -2.00918,-0.520234 -0.87902,-0.538173 -1.36337,-1.524823 -0.48436,-0.986651 -0.48436,-2.314144 0,-1.488946 0.53818,-2.637048 0.53817,-1.166042 1.50688,-1.79391 0.98665,-0.645808 2.26033,-0.645808 0.98665,0 1.72215,0.39466 0.75344,0.394661 1.16604,1.148103 l 0.43054,-5.453487 z m -5.29204,11.606598 q 1.11223,0 1.75803,-0.861077 0.64581,-0.861076 0.64581,-2.332083 0,-1.345432 -0.59199,-2.045057 -0.59199,-0.717564 -1.68627,-0.717564 -1.14811,0 -1.81185,0.861077 -0.64581,0.861077 -0.64581,2.350022 0,1.309554 0.60993,2.027118 0.60993,0.717564 1.72215,0.717564 z"
         style="font-style:italic;font-variant:normal;font-weight:bold;font-stretch:normal;font-size:17.9391px;font-family:Mulish;-inkscape-font-specification:'Mulish Bold Italic';stroke-width:0.336357"
         id="path939" />
      <path
         d="m 221.59016,45.926322 v 0.107634 q 0,1.327494 0.64581,2.027118 0.64581,0.699625 1.8836,0.699625 1.56071,0 2.7985,-0.950772 l 0.5023,1.524824 q -0.57405,0.538173 -1.50689,0.843137 -0.93283,0.304965 -1.91948,0.304965 -1.38131,0 -2.42178,-0.538173 -1.04047,-0.556112 -1.59658,-1.560702 -0.55611,-1.004589 -0.55611,-2.332083 0,-1.453067 0.57405,-2.58323 0.59199,-1.148103 1.61452,-1.775971 1.04047,-0.645808 2.35002,-0.645808 1.81185,0 2.85232,1.058407 1.05841,1.040468 1.05841,2.942013 0,0.412599 -0.0538,0.879016 z m 2.4756,-3.282856 q -1.91949,0 -2.35003,2.080936 h 4.26951 q 0.0179,-0.986651 -0.50229,-1.524824 -0.52024,-0.556112 -1.41719,-0.556112 z"
         style="font-style:italic;font-variant:normal;font-weight:bold;font-stretch:normal;font-size:17.9391px;font-family:Mulish;-inkscape-font-specification:'Mulish Bold Italic';stroke-width:0.336357"
         id="path941" />
      <path
         d="m 234.72018,45.693113 3.40843,4.646227 h -2.61911 l -2.18857,-3.103464 -2.67293,3.103464 h -2.69086 l 4.16187,-4.682105 -3.22904,-4.37714 h 2.61911 l 1.99124,2.816438 2.43972,-2.816438 h 2.69086 z"
         style="font-style:italic;font-variant:normal;font-weight:bold;font-stretch:normal;font-size:17.9391px;font-family:Mulish;-inkscape-font-specification:'Mulish Bold Italic';stroke-width:0.336357"
         id="path943" />
      <path
         d="m 241.03587,45.926322 v 0.107634 q 0,1.327494 0.64581,2.027118 0.6458,0.699625 1.8836,0.699625 1.5607,0 2.7985,-0.950772 l 0.5023,1.524824 q -0.57405,0.538173 -1.50689,0.843137 -0.93283,0.304965 -1.91948,0.304965 -1.38131,0 -2.42178,-0.538173 -1.04047,-0.556112 -1.59658,-1.560702 -0.55611,-1.004589 -0.55611,-2.332083 0,-1.453067 0.57405,-2.58323 0.59199,-1.148103 1.61452,-1.775971 1.04047,-0.645808 2.35002,-0.645808 1.81185,0 2.85232,1.058407 1.0584,1.040468 1.0584,2.942013 0,0.412599 -0.0538,0.879016 z m 2.4756,-3.282856 q -1.91949,0 -2.35003,2.080936 h 4.26951 q 0.0179,-0.986651 -0.5023,-1.524824 -0.52023,-0.556112 -1.41718,-0.556112 z"
         style="font-style:italic;font-variant:normal;font-weight:bold;font-stretch:normal;font-size:17.9391px;font-family:Mulish;-inkscape-font-specification:'Mulish Bold Italic';stroke-width:0.336357"
         id="path945" />
      <path
         d="m 258.57723,37.136162 -1.0584,13.203178 h -2.20651 l 0.10763,-1.273676 q -0.44848,0.663747 -1.20192,1.040468 -0.75344,0.376721 -1.6504,0.376721 -1.13016,0 -2.00917,-0.520234 -0.87902,-0.538173 -1.36338,-1.524823 -0.48435,-0.986651 -0.48435,-2.314144 0,-1.488946 0.53817,-2.637048 0.53817,-1.166042 1.50689,-1.79391 0.98665,-0.645808 2.26032,-0.645808 0.98665,0 1.72216,0.39466 0.75344,0.394661 1.16604,1.148103 l 0.43054,-5.453487 z M 253.2852,48.74276 q 1.11222,0 1.75803,-0.861077 0.64581,-0.861076 0.64581,-2.332083 0,-1.345432 -0.59199,-2.045057 -0.59199,-0.717564 -1.68628,-0.717564 -1.1481,0 -1.81185,0.861077 -0.6458,0.861077 -0.6458,2.350022 0,1.309554 0.60993,2.027118 0.60992,0.717564 1.72215,0.717564 z"
         style="font-style:italic;font-variant:normal;font-weight:bold;font-stretch:normal;font-size:17.9391px;font-family:Mulish;-inkscape-font-specification:'Mulish Bold Italic';stroke-width:0.336357"
         id="path947" />
      <path
         d="m 266.05026,37.566701 h 4.66417 q 1.91948,0 3.30079,0.717564 1.38131,0.699625 2.09888,2.045057 0.7355,1.327494 0.7355,3.157282 0,2.152692 -0.80726,3.695455 -0.78932,1.542762 -2.33208,2.350022 -1.52483,0.807259 -3.65958,0.807259 h -4.98707 z m 3.82103,10.889034 q 4.64623,0 4.64623,-4.98707 0,-1.973301 -1.04047,-2.99583 -1.02253,-1.022529 -3.03171,-1.022529 h -2.22445 l -0.71756,9.005429 z"
         style="font-style:italic;font-variant:normal;font-weight:bold;font-stretch:normal;font-size:17.9391px;font-family:Mulish;-inkscape-font-specification:'Mulish Bold Italic';stroke-width:0.336357"
         id="path949" />
      <path
         d="m 287.913,41.280095 -0.71757,9.059245 h -2.20651 l 0.10764,-1.255737 q -0.46642,0.663747 -1.21986,1.040468 -0.73551,0.358782 -1.61452,0.358782 -1.1481,0 -2.02712,-0.520234 -0.86108,-0.538173 -1.34543,-1.524823 -0.48436,-1.00459 -0.48436,-2.332083 0,-1.488946 0.53818,-2.637048 0.53817,-1.148103 1.50688,-1.775971 0.96871,-0.645808 2.24239,-0.645808 1.00459,0 1.74009,0.4126 0.75344,0.412599 1.16604,1.166041 l 0.10764,-1.345432 z m -4.9512,7.462665 q 1.11223,0 1.75804,-0.861077 0.6458,-0.861076 0.6458,-2.332083 0,-1.345432 -0.59199,-2.045057 -0.59199,-0.717564 -1.68627,-0.717564 -1.1481,0 -1.79391,0.861077 -0.64581,0.861077 -0.64581,2.367961 0,1.309554 0.59199,2.027118 0.60993,0.699625 1.72215,0.699625 z"
         style="font-style:italic;font-variant:normal;font-weight:bold;font-stretch:normal;font-size:17.9391px;font-family:Mulish;-inkscape-font-specification:'Mulish Bold Italic';stroke-width:0.336357"
         id="path951" />
      <path
         d="m 292.75906,47.020607 q -0.12557,1.59658 1.34543,1.59658 0.4126,0 0.93284,-0.125574 l -0.14352,1.758032 q -0.59199,0.215269 -1.471,0.215269 -1.41719,0 -2.17063,-0.735503 -0.75345,-0.753442 -0.75345,-2.170631 0,-0.269087 0.0179,-0.4126 l 0.32291,-4.17981 h -1.7401 l 0.14352,-1.686275 h 1.72215 l 0.17939,-2.20651 2.29621,-0.753442 -0.23321,2.959952 h 2.42178 l -0.14352,1.686275 h -2.40384 z"
         style="font-style:italic;font-variant:normal;font-weight:bold;font-stretch:normal;font-size:17.9391px;font-family:Mulish;-inkscape-font-specification:'Mulish Bold Italic';stroke-width:0.336357"
         id="path953" />
      <path
         d="m 305.81705,41.280095 -0.71757,9.059245 h -2.20651 l 0.10764,-1.255737 q -0.46642,0.663747 -1.21986,1.040468 -0.7355,0.358782 -1.61452,0.358782 -1.1481,0 -2.02712,-0.520234 -0.86107,-0.538173 -1.34543,-1.524823 -0.48435,-1.00459 -0.48435,-2.332083 0,-1.488946 0.53817,-2.637048 0.53817,-1.148103 1.50688,-1.775971 0.96871,-0.645808 2.24239,-0.645808 1.00459,0 1.74009,0.4126 0.75345,0.412599 1.16604,1.166041 l 0.10764,-1.345432 z m -4.95119,7.462665 q 1.11222,0 1.75803,-0.861077 0.64581,-0.861076 0.64581,-2.332083 0,-1.345432 -0.59199,-2.045057 -0.59199,-0.717564 -1.68628,-0.717564 -1.1481,0 -1.79391,0.861077 -0.64581,0.861077 -0.64581,2.367961 0,1.309554 0.59199,2.027118 0.60993,0.699625 1.72216,0.699625 z"
         style="font-style:italic;font-variant:normal;font-weight:bold;font-stretch:normal;font-size:17.9391px;font-family:Mulish;-inkscape-font-specification:'Mulish Bold Italic';stroke-width:0.336357"
         id="path955" />
      <path
         d="m 310.89632,39.414428 -0.28702,3.498125 h 5.68669 l -0.14351,1.865666 h -5.6867 l -0.44847,5.561121 h -2.27827 l 0.98665,-12.772639 h 8.35962 l -0.14351,1.847727 z"
         style="font-style:italic;font-variant:normal;font-weight:bold;font-stretch:normal;font-size:17.9391px;font-family:Mulish;-inkscape-font-specification:'Mulish Bold Italic';stroke-width:0.336357"
         id="path957" />
      <path
         d="m 323.22947,41.064825 q 0.53817,0 0.91489,0.143513 l -0.17939,2.027119 q -0.50229,-0.21527 -1.16604,-0.21527 -1.16604,0 -1.81185,0.663747 -0.64581,0.645808 -0.71756,1.758032 l -0.39466,4.897374 h -2.24239 l 0.52023,-6.493954 q 0.0718,-1.219859 0.0718,-1.847727 0,-0.484356 -0.0179,-0.717564 h 2.09888 l 0.0359,1.38131 q 0.39466,-0.753442 1.16605,-1.166041 0.78932,-0.430539 1.72215,-0.430539 z"
         style="font-style:italic;font-variant:normal;font-weight:bold;font-stretch:normal;font-size:17.9391px;font-family:Mulish;-inkscape-font-specification:'Mulish Bold Italic';stroke-width:0.336357"
         id="path959" />
      <path
         d="m 333.88193,41.280095 -0.71757,9.059245 h -2.2065 l 0.10763,-1.255737 q -0.46642,0.663747 -1.21986,1.040468 -0.7355,0.358782 -1.61452,0.358782 -1.1481,0 -2.02712,-0.520234 -0.86107,-0.538173 -1.34543,-1.524823 -0.48435,-1.00459 -0.48435,-2.332083 0,-1.488946 0.53817,-2.637048 0.53817,-1.148103 1.50688,-1.775971 0.96871,-0.645808 2.24239,-0.645808 1.00459,0 1.74009,0.4126 0.75345,0.412599 1.16604,1.166041 l 0.10764,-1.345432 z m -4.95119,7.462665 q 1.11222,0 1.75803,-0.861077 0.64581,-0.861076 0.64581,-2.332083 0,-1.345432 -0.59199,-2.045057 -0.59199,-0.717564 -1.68628,-0.717564 -1.1481,0 -1.79391,0.861077 -0.64581,0.861077 -0.64581,2.367961 0,1.309554 0.59199,2.027118 0.60993,0.699625 1.72216,0.699625 z"
         style="font-style:italic;font-variant:normal;font-weight:bold;font-stretch:normal;font-size:17.9391px;font-family:Mulish;-inkscape-font-specification:'Mulish Bold Italic';stroke-width:0.336357"
         id="path961" />
      <path
         d="m 346.90822,41.046886 q 1.43513,0 2.17064,0.825199 0.7355,0.825198 0.7355,2.403839 0,0.358782 -0.0179,0.538173 l -0.43054,5.525243 h -2.24239 l 0.43054,-5.453486 q 0.0179,-0.143513 0.0179,-0.4126 0,-0.843137 -0.35878,-1.237797 -0.35878,-0.4126 -1.09429,-0.4126 -0.93283,0 -1.48894,0.627869 -0.53817,0.627868 -0.62787,1.865666 l -0.39466,5.022948 h -2.24239 l 0.43054,-5.417608 q 0.0179,-0.143513 0.0179,-0.39466 0,-0.861077 -0.35878,-1.273676 -0.35878,-0.430539 -1.09429,-0.430539 -0.95077,0 -1.48894,0.627869 -0.53818,0.627868 -0.62787,1.865666 l -0.39466,5.022948 h -2.24239 l 0.52023,-6.493954 q 0.0718,-1.219859 0.0718,-1.847727 0,-0.484356 -0.0179,-0.717564 h 2.09888 l 0.0359,1.291615 q 0.98666,-1.524824 2.8882,-1.524824 1.00459,0 1.66834,0.4126 0.68168,0.412599 0.96871,1.201919 0.50229,-0.771381 1.29161,-1.18398 0.80726,-0.430539 1.77597,-0.430539 z"
         style="font-style:italic;font-variant:normal;font-weight:bold;font-stretch:normal;font-size:17.9391px;font-family:Mulish;-inkscape-font-specification:'Mulish Bold Italic';stroke-width:0.336357"
         id="path963" />
      <path
         d="m 353.7509,45.926322 v 0.107634 q 0,1.327494 0.6458,2.027118 0.64581,0.699625 1.88361,0.699625 1.5607,0 2.7985,-0.950772 l 0.50229,1.524824 q -0.57405,0.538173 -1.50688,0.843137 -0.93283,0.304965 -1.91948,0.304965 -1.38131,0 -2.42178,-0.538173 -1.04047,-0.556112 -1.59658,-1.560702 -0.55611,-1.004589 -0.55611,-2.332083 0,-1.453067 0.57405,-2.58323 0.59199,-1.148103 1.61452,-1.775971 1.04046,-0.645808 2.35002,-0.645808 1.81185,0 2.85231,1.058407 1.05841,1.040468 1.05841,2.942013 0,0.412599 -0.0538,0.879016 z m 2.47559,-3.282856 q -1.91948,0 -2.35002,2.080936 h 4.26951 q 0.0179,-0.986651 -0.5023,-1.524824 -0.52023,-0.556112 -1.41719,-0.556112 z"
         style="font-style:italic;font-variant:normal;font-weight:bold;font-stretch:normal;font-size:17.9391px;font-family:Mulish;-inkscape-font-specification:'Mulish Bold Italic';stroke-width:0.336357"
         id="path965" />
      <path
         d="m 381.61508,41.280095 -4.26951,9.059245 h -1.95536 l -1.79391,-5.919903 -2.65498,5.919903 h -1.95537 l -2.83437,-9.059245 h 2.24238 l 1.84773,6.36838 2.81644,-6.36838 h 1.63246 l 1.84773,6.422197 2.83437,-6.422197 z"
         style="font-style:italic;font-variant:normal;font-weight:bold;font-stretch:normal;font-size:17.9391px;font-family:Mulish;-inkscape-font-specification:'Mulish Bold Italic';stroke-width:0.336357"
         id="path967" />
      <path
         d="m 383.0289,41.280095 h 2.24238 l -0.71756,9.059245 h -2.24239 z m 2.67292,-4.108054 -0.16145,2.206509 h -2.49353 l 0.16145,-2.206509 z"
         style="font-style:italic;font-variant:normal;font-weight:bold;font-stretch:normal;font-size:17.9391px;font-family:Mulish;-inkscape-font-specification:'Mulish Bold Italic';stroke-width:0.336357"
         id="path969" />
      <path
         d="m 390.12774,47.020607 q -0.12557,1.59658 1.34544,1.59658 0.4126,0 0.93283,-0.125574 l -0.14351,1.758032 q -0.59199,0.215269 -1.47101,0.215269 -1.41719,0 -2.17063,-0.735503 -0.75344,-0.753442 -0.75344,-2.170631 0,-0.269087 0.0179,-0.4126 l 0.3229,-4.17981 h -1.74009 l 0.14351,-1.686275 h 1.72215 l 0.17939,-2.20651 2.29621,-0.753442 -0.23321,2.959952 h 2.42178 l -0.14351,1.686275 h -2.40384 z"
         style="font-style:italic;font-variant:normal;font-weight:bold;font-stretch:normal;font-size:17.9391px;font-family:Mulish;-inkscape-font-specification:'Mulish Bold Italic';stroke-width:0.336357"
         id="path971" />
      <path
         d="m 399.59791,41.046886 q 1.52482,0 2.29621,0.843138 0.78932,0.825199 0.78932,2.421779 0,0.340842 -0.0179,0.520233 l -0.44848,5.507304 h -2.22445 l 0.43054,-5.399669 q 0.0179,-0.125574 0.0179,-0.358782 0,-0.861077 -0.43054,-1.309554 -0.4126,-0.448478 -1.2378,-0.448478 -1.04047,0 -1.63246,0.645808 -0.59199,0.627868 -0.68168,1.740093 l -0.4126,5.130582 h -2.24239 l 1.04047,-13.203178 h 2.24239 l -0.4126,5.256157 q 0.48435,-0.645808 1.2378,-0.986651 0.75344,-0.358782 1.68627,-0.358782 z"
         style="font-style:italic;font-variant:normal;font-weight:bold;font-stretch:normal;font-size:17.9391px;font-family:Mulish;-inkscape-font-specification:'Mulish Bold Italic';stroke-width:0.336357"
         id="path973" />
      <path
         d="m 410.75519,50.33934 h 2.63705 l 0.93283,-4.628288 c 1.05841,-1.59658 2.33208,-2.170631 3.42637,-2.170631 0.66375,0 1.00459,0.0897 1.52482,0.251148 l 0.98665,-2.20651 c -0.48435,-0.233208 -0.86107,-0.358782 -1.65039,-0.358782 -1.41719,0 -2.87026,0.699625 -4.0363,2.152692 h -0.0538 l 0.16145,-1.937423 h -2.15269 z"
         style="font-style:italic;font-variant:normal;font-weight:bold;font-stretch:normal;font-family:'Source Code Pro';-inkscape-font-specification:'Source Code Pro Bold Italic';stroke-width:0.336357"
         id="path975" />
      <path
         d="m 421.3143,45.890443 c -0.59199,2.942013 1.2378,4.664166 4.00042,4.664166 1.18398,0 2.58323,-0.39466 3.71339,-1.040467 l -0.53817,-1.578641 c -0.87902,0.39466 -1.61452,0.609929 -2.42178,0.609929 -1.30955,0 -2.2962,-0.556112 -2.20651,-1.883605 h 5.99166 c 0.0718,-0.21527 0.25115,-0.699625 0.34084,-1.166042 0.48436,-2.421778 -0.57405,-4.269506 -3.31873,-4.269506 -2.36796,0 -4.98707,1.758032 -5.56112,4.664166 z m 2.85232,-0.968711 c 0.46641,-1.148102 1.39925,-1.686275 2.35002,-1.686275 1.20192,0 1.61452,0.681685 1.39925,1.686275 z"
         style="font-style:italic;font-variant:normal;font-weight:bold;font-stretch:normal;font-family:'Source Code Pro';-inkscape-font-specification:'Source Code Pro Bold Italic';stroke-width:0.336357"
         id="path977" />
      <path
         d="m 431.78371,47.863744 c -0.30496,1.506885 0.59199,2.690865 2.3859,2.690865 1.14811,0 2.36797,-0.538173 3.39049,-1.219858 h 0.0718 v 1.004589 h 2.15269 l 1.02253,-5.094704 c 0.53817,-2.726744 -0.71756,-4.018359 -3.2111,-4.018359 -1.52482,0 -3.04964,0.502295 -4.41302,1.20192 l 0.59199,1.722154 c 1.11223,-0.502295 2.00918,-0.825199 2.87026,-0.825199 1.20192,0 1.72215,0.484356 1.6504,1.291615 -4.26951,0.251148 -6.11724,1.255737 -6.5119,3.246977 z m 2.5653,-0.19733 c 0.14351,-0.771381 0.98665,-1.327493 3.62369,-1.471006 l -0.28702,1.471006 c -0.73551,0.484356 -1.48895,0.843138 -2.27827,0.843138 -0.75344,0 -1.18398,-0.269087 -1.0584,-0.843138 z"
         style="font-style:italic;font-variant:normal;font-weight:bold;font-stretch:normal;font-family:'Source Code Pro';-inkscape-font-specification:'Source Code Pro Bold Italic';stroke-width:0.336357"
         id="path979" />
      <path
         d="m 442.6837,45.890443 c -0.59199,2.906135 0.55611,4.664166 2.81643,4.664166 0.89696,0 1.90155,-0.484355 2.69087,-1.130163 h 0.0538 l 0.0179,0.914894 h 2.15269 l 2.51147,-12.575309 h -2.63705 l -0.60992,3.031708 -0.1794,1.381311 c -0.52023,-0.574052 -1.0584,-0.950773 -2.08093,-0.950773 -1.93742,0 -4.16187,1.758032 -4.73592,4.664166 z m 2.7088,-0.03588 c 0.34084,-1.686275 1.32749,-2.475596 2.29621,-2.475596 0.52023,0 0.96871,0.161452 1.36337,0.591991 l -0.71757,3.605759 c -0.59199,0.59199 -1.13016,0.825198 -1.72215,0.825198 -1.09429,0 -1.57864,-0.78932 -1.21986,-2.547352 z"
         style="font-style:italic;font-variant:normal;font-weight:bold;font-stretch:normal;font-family:'Source Code Pro';-inkscape-font-specification:'Source Code Pro Bold Italic';stroke-width:0.336357"
         id="path981" />
      <path
         d="m 452.57906,51.308052 -0.39466,1.973301 h 8.61077 l 0.39466,-1.973301 z"
         style="font-style:italic;font-variant:normal;font-weight:bold;font-stretch:normal;font-family:'Source Code Pro';-inkscape-font-specification:'Source Code Pro Bold Italic';stroke-width:0.336357"
         id="path983" />
      <path
         d="m 464.55539,45.890443 c -0.59199,2.959952 1.21986,4.664166 4.01836,4.664166 1.21985,0 2.67292,-0.412599 3.92866,-1.309554 l -0.7355,-1.668336 c -0.71757,0.448477 -1.59658,0.843137 -2.52942,0.843137 -1.471,0 -2.2962,-0.98665 -1.9733,-2.529413 0.30497,-1.542762 1.5607,-2.529413 3.08553,-2.529413 0.66374,0 1.23779,0.215269 1.82978,0.699625 l 1.54277,-1.632458 c -0.60993,-0.699625 -1.68628,-1.20192 -3.08553,-1.20192 -2.74468,0 -5.48936,1.704215 -6.08135,4.664166 z"
         style="font-style:italic;font-variant:normal;font-weight:bold;font-stretch:normal;font-family:'Source Code Pro';-inkscape-font-specification:'Source Code Pro Bold Italic';stroke-width:0.336357"
         id="path985" />
      <path
         d="m 474.39693,49.191238 c 0.96871,0.753442 2.49354,1.363371 4.09012,1.363371 2.85231,0 4.62829,-1.255737 4.95119,-2.870256 0.30496,-1.542762 -1.09429,-2.206509 -2.76262,-2.672926 -1.18398,-0.322903 -2.15269,-0.59199 -2.04506,-1.130163 0.0897,-0.448477 0.57405,-0.699625 1.68628,-0.699625 0.93283,0 1.72215,0.358782 2.42177,0.843138 l 1.50689,-1.578641 c -0.80726,-0.59199 -2.00918,-1.219859 -3.58782,-1.219859 -2.54735,0 -4.34126,1.130164 -4.66417,2.780561 -0.28702,1.417189 1.16604,2.170631 2.65499,2.601169 1.34543,0.394661 2.24239,0.699625 2.13475,1.237798 -0.0897,0.466417 -0.66374,0.753442 -1.86566,0.753442 -1.18399,0 -2.11682,-0.412599 -3.01377,-1.058406 z"
         style="font-style:italic;font-variant:normal;font-weight:bold;font-stretch:normal;font-family:'Source Code Pro';-inkscape-font-specification:'Source Code Pro Bold Italic';stroke-width:0.336357"
         id="path987" />
      <path
         d="m 487.88015,50.33934 h 3.0317 l 5.04089,-8.897794 h -2.52941 l -2.24239,4.19775 c -0.46642,0.896955 -0.87902,1.811849 -1.32749,2.744682 h -0.0718 c -0.0897,-0.932833 -0.16145,-1.847727 -0.26909,-2.744682 l -0.55611,-4.19775 h -2.65499 z"
         style="font-style:italic;font-variant:normal;font-weight:bold;font-stretch:normal;font-family:'Source Code Pro';-inkscape-font-specification:'Source Code Pro Bold Italic';stroke-width:0.336357"
         id="path989" />
    </g>
    <path
       sodipodi:type="star"
       style="fill:url(#linearGradient31643);fill-opacity:1;stroke:#071159;stroke-width:0;stroke-miterlimit:4;stroke-dasharray:none"
       id="path31635"
       sodipodi:sides="3"
       sodipodi:cx="19.597784"
       sodipodi:cy="77.457909"
       sodipodi:r1="26.137787"
       sodipodi:r2="13.068893"
       sodipodi:arg1="1.5707963"
       sodipodi:arg2="2.6179939"
       inkscape:flatsided="true"
       inkscape:rounded="0"
       inkscape:randomized="0"
       d="M 19.597785,103.5957 -3.0382037,64.389016 42.233771,64.389015 Z"
       inkscape:transform-center-y="3.3909038"
       transform="matrix(1.3679941,0,0,0.51892776,22.691697,22.71965)" />
    <text
       xml:space="preserve"
       style="font-size:14.3512px;line-height:1.25;font-family:Mulish;-inkscape-font-specification:Mulish;stroke-width:0.336357"
       x="12.54915"
       y="88.610046"
       id="text31647"><tspan
         sodipodi:role="line"
         id="tspan31645"
         x="12.54915"
         y="88.610046"
         style="stroke-width:0.336357">action verb</tspan></text>
    <text
       xml:space="preserve"
       style="font-size:14.3512px;line-height:1.25;font-family:Mulish;-inkscape-font-specification:Mulish;stroke-width:0.336357"
       x="198.97519"
       y="87.131851"
       id="text31647-8"><tspan
         sodipodi:role="line"
         id="tspan31645-4"
         x="198.97519"
         y="87.131851"
         style="stroke-width:0.336357">specific</tspan></text>
    <path
       sodipodi:type="star"
       style="fill:url(#linearGradient31643-1);fill-opacity:1;stroke:#071159;stroke-width:0;stroke-miterlimit:4;stroke-dasharray:none"
       id="path31635-8"
       sodipodi:sides="3"
       sodipodi:cx="19.597784"
       sodipodi:cy="77.457909"
       sodipodi:r1="26.137787"
       sodipodi:r2="13.068893"
       sodipodi:arg1="1.5707963"
       sodipodi:arg2="2.6179939"
       inkscape:flatsided="true"
       inkscape:rounded="0"
       inkscape:randomized="0"
       inkscape:transform-center-y="3.3909048"
       transform="matrix(1.5951106,0,0,0.51892776,193.56042,21.5135)"
       d="M 19.597785,103.5957 -3.0382037,64.389016 42.233771,64.389015 Z"
       inkscape:transform-center-x="1.0752832e-05" />
  </g>
</svg>
