<?xml version="1.0" encoding="UTF-8" standalone="no"?>
<svg
   xmlns:dc="http://purl.org/dc/elements/1.1/"
   xmlns:cc="http://creativecommons.org/ns#"
   xmlns:rdf="http://www.w3.org/1999/02/22-rdf-syntax-ns#"
   xmlns:svg="http://www.w3.org/2000/svg"
   xmlns="http://www.w3.org/2000/svg"
   xmlns:xlink="http://www.w3.org/1999/xlink"
   xmlns:sodipodi="http://sodipodi.sourceforge.net/DTD/sodipodi-0.dtd"
   xmlns:inkscape="http://www.inkscape.org/namespaces/inkscape"
   width="500mm"
   height="100mm"
   viewBox="0 0 500 100"
   version="1.1"
   id="svg16863"
   inkscape:version="1.0.2 (e86c8708, 2021-01-15)"
   sodipodi:docname="objective.svg">
  <defs
     id="defs16857">
    <linearGradient
       inkscape:collect="always"
       id="linearGradient31706">
      <stop
         style="stop-color:#ffe7a8;stop-opacity:1"
         offset="0"
         id="stop31702" />
      <stop
         style="stop-color:#ffd6d8;stop-opacity:0;"
         offset="1"
         id="stop31704" />
    </linearGradient>
    <linearGradient
       inkscape:collect="always"
       id="linearGradient31641">
      <stop
         style="stop-color:#ffd6d8;stop-opacity:1"
         offset="0"
         id="stop31637" />
      <stop
         style="stop-color:#ffd6d8;stop-opacity:0;"
         offset="1"
         id="stop31639" />
    </linearGradient>
    <linearGradient
       inkscape:collect="always"
       xlink:href="#linearGradient31641"
       id="linearGradient31643"
       x1="20.088335"
       y1="64.630577"
       x2="19.597784"
       y2="103.5957"
       gradientUnits="userSpaceOnUse" />
    <linearGradient
       inkscape:collect="always"
       xlink:href="#linearGradient31706"
       id="linearGradient31643-1"
       x1="19.597784"
       y1="64.630577"
       x2="19.597784"
       y2="103.5957"
       gradientUnits="userSpaceOnUse" />
  </defs>
  <sodipodi:namedview
     id="base"
     pagecolor="#ffffff"
     bordercolor="#666666"
     borderopacity="1.0"
     inkscape:pageopacity="0.0"
     inkscape:pageshadow="2"
     inkscape:zoom="0.40557261"
     inkscape:cx="765.34941"
     inkscape:cy="98.777235"
     inkscape:document-units="mm"
     inkscape:current-layer="layer1"
     inkscape:document-rotation="0"
     showgrid="false"
     width="500mm"
     inkscape:window-width="1440"
     inkscape:window-height="847"
     inkscape:window-x="0"
     inkscape:window-y="25"
     inkscape:window-maximized="0" />
  <metadata
     id="metadata16860">
    <rdf:RDF>
      <cc:Work
         rdf:about="">
        <dc:format>image/svg+xml</dc:format>
        <dc:type
           rdf:resource="http://purl.org/dc/dcmitype/StillImage" />
        <dc:title></dc:title>
      </cc:Work>
    </rdf:RDF>
  </metadata>
  <g
     inkscape:label="Layer 1"
     inkscape:groupmode="layer"
     id="layer1">
    <rect
       style="fill:#ffe7a8;fill-opacity:1;stroke:#071159;stroke-width:0;stroke-miterlimit:4;stroke-dasharray:none"
       id="rect31611-3"
       width="72.795708"
       height="21.110109"
       x="188.71399"
       y="33.816631" />
    <rect
       style="fill:#ffd6d8;fill-opacity:1;stroke:#071159;stroke-width:0;stroke-miterlimit:4;stroke-dasharray:none"
       id="rect31611"
       width="61.931793"
       height="21.110109"
       x="18.535442"
       y="35.022789" />
    <g
       aria-label="After following this lesson, learners should be able to..."
       id="text31583"
       style="font-style:italic;font-size:14.3512px;line-height:1.25;font-family:Mulish;-inkscape-font-specification:'Mulish Italic';stroke-width:0.336357">
      <path
         d="M 14.429197,16.157973 H 9.0905506 l -1.3203104,2.62627 H 6.5216858 L 11.817279,8.5661882 h 1.018935 L 16.538823,18.784243 H 15.347674 Z M 14.084768,15.182091 12.233463,9.9295522 9.5928426,15.182091 Z"
         style="fill:#4d4d4d;stroke-width:0.336357"
         id="path1072" />
      <path
         d="m 21.339524,9.1545874 q -0.559697,0 -0.918477,0.3300776 -0.344429,0.3157264 -0.401833,1.119394 l -0.07176,0.96153 h 2.066572 l -0.08611,0.918477 H 19.86135 l -0.502292,6.300177 h -1.148096 l 0.502292,-6.300177 h -1.406417 l 0.08611,-0.918477 h 1.392066 l 0.08611,-1.119394 q 0.100458,-1.1193932 0.703208,-1.7077924 0.617102,-0.5883992 1.592984,-0.5883992 0.473589,0 0.947179,0.1291608 l -0.08611,0.9758816 Q 21.626548,9.1545874 21.339524,9.1545874 Z"
         style="fill:#4d4d4d;stroke-width:0.336357"
         id="path1074" />
      <path
         d="m 24.072755,16.430646 -0.01435,0.24397 q 0,0.674507 0.301375,0.947179 0.301376,0.272673 0.861072,0.272673 0.416185,0 0.760614,-0.129161 l -0.07176,0.975882 q -0.430536,0.143512 -0.990233,0.143512 -0.96153,0 -1.492525,-0.502292 -0.530994,-0.516643 -0.530994,-1.506876 0,-0.186566 0.01435,-0.287024 l 0.315727,-4.104443 h -1.406418 l 0.07176,-0.918477 h 1.406418 l 0.143512,-1.8513048 1.191149,-0.4161848 -0.172214,2.2674896 h 2.066573 l -0.08611,0.918477 h -2.052221 z"
         style="fill:#4d4d4d;stroke-width:0.336357"
         id="path1076" />
      <path
         d="m 28.372508,15.139038 v 0.287024 q 0,1.191149 0.5884,1.851305 0.588399,0.660155 1.707792,0.660155 1.349013,0 2.367948,-0.83237 l 0.344429,0.846721 q -0.459238,0.430536 -1.219852,0.688858 -0.760613,0.24397 -1.535578,0.24397 -1.047638,0 -1.822603,-0.430536 -0.760613,-0.430536 -1.176798,-1.219852 -0.416185,-0.789316 -0.416185,-1.836954 0,-1.176798 0.430536,-2.080924 0.444887,-0.918476 1.248555,-1.420768 0.803667,-0.502292 1.865656,-0.502292 1.377715,0 2.181382,0.803667 0.803667,0.789316 0.803667,2.281841 0,0.315726 -0.04305,0.660155 z m 2.439704,-2.855889 q -0.947179,0 -1.549929,0.545346 -0.602751,0.530994 -0.803667,1.549929 h 4.262306 q 0.01435,-1.004584 -0.502292,-1.549929 -0.502292,-0.545346 -1.406418,-0.545346 z"
         style="fill:#4d4d4d;stroke-width:0.336357"
         id="path1078" />
      <path
         d="m 39.106086,11.393375 q 0.373131,0 0.645804,0.08611 l -0.100459,1.047637 Q 39.2783,12.41231 38.905169,12.41231 q -1.047638,0 -1.607334,0.660155 -0.559697,0.645804 -0.617102,1.592983 l -0.344429,4.118795 h -1.162447 l 0.416185,-5.195135 q 0.05741,-0.975881 0.05741,-1.463822 0,-0.373131 -0.01435,-0.559697 h 1.090692 l 0.01435,1.162447 q 0.344429,-0.631453 0.975881,-0.975881 0.645804,-0.35878 1.392067,-0.35878 z"
         style="fill:#4d4d4d;stroke-width:0.336357"
         id="path1080" />
      <path
         d="m 47.631372,9.1545874 q -0.559697,0 -0.918477,0.3300776 -0.344428,0.3157264 -0.401833,1.119394 l -0.07176,0.96153 h 2.066573 l -0.08611,0.918477 h -2.066572 l -0.502292,6.300177 h -1.148096 l 0.502292,-6.300177 h -1.406418 l 0.08611,-0.918477 h 1.392067 l 0.08611,-1.119394 q 0.100458,-1.1193932 0.703209,-1.7077924 0.617101,-0.5883992 1.592983,-0.5883992 0.473589,0 0.947179,0.1291608 L 48.32023,9.2550458 Q 47.918396,9.1545874 47.631372,9.1545874 Z"
         style="fill:#4d4d4d;stroke-width:0.336357"
         id="path1082" />
      <path
         d="m 52.06634,18.884701 q -1.004584,0 -1.765198,-0.430536 -0.746262,-0.430536 -1.162447,-1.219852 -0.401834,-0.789316 -0.401834,-1.836954 0,-1.2055 0.430536,-2.109626 0.444887,-0.904126 1.234203,-1.392066 0.789316,-0.502292 1.836954,-0.502292 1.004584,0 1.750847,0.430536 0.760613,0.430536 1.162447,1.234203 0.416185,0.789316 0.416185,1.836953 0,1.205501 -0.444888,2.109627 -0.430536,0.904125 -1.219852,1.392066 -0.789316,0.487941 -1.836953,0.487941 z m 0.0287,-0.947179 q 1.090691,0 1.693442,-0.83237 0.60275,-0.832369 0.60275,-2.253138 0,-1.19115 -0.574048,-1.836954 -0.559697,-0.660155 -1.578632,-0.660155 -1.090691,0 -1.707793,0.83237 -0.617101,0.832369 -0.617101,2.253138 0,1.219852 0.559696,1.865656 0.559697,0.631453 1.621686,0.631453 z"
         style="fill:#4d4d4d;stroke-width:0.336357"
         id="path1084" />
      <path
         d="m 57.939794,8.2217594 h 1.162447 L 58.25552,18.784243 h -1.162447 z"
         style="fill:#4d4d4d;stroke-width:0.336357"
         id="path1086" />
      <path
         d="m 61.359414,8.2217594 h 1.162448 L 61.675141,18.784243 h -1.162447 z"
         style="fill:#4d4d4d;stroke-width:0.336357"
         id="path1088" />
      <path
         d="m 67.118284,18.884701 q -1.004584,0 -1.765197,-0.430536 -0.746263,-0.430536 -1.162447,-1.219852 -0.401834,-0.789316 -0.401834,-1.836954 0,-1.2055 0.430536,-2.109626 0.444887,-0.904126 1.234203,-1.392066 0.789316,-0.502292 1.836954,-0.502292 1.004584,0 1.750846,0.430536 0.760614,0.430536 1.162447,1.234203 0.416185,0.789316 0.416185,1.836953 0,1.205501 -0.444887,2.109627 -0.430536,0.904125 -1.219852,1.392066 -0.789316,0.487941 -1.836954,0.487941 z m 0.0287,-0.947179 q 1.090691,0 1.693441,-0.83237 0.602751,-0.832369 0.602751,-2.253138 0,-1.19115 -0.574048,-1.836954 -0.559697,-0.660155 -1.578632,-0.660155 -1.090691,0 -1.707793,0.83237 -0.617102,0.832369 -0.617102,2.253138 0,1.219852 0.559697,1.865656 0.559697,0.631453 1.621686,0.631453 z"
         style="fill:#4d4d4d;stroke-width:0.336357"
         id="path1090" />
      <path
         d="m 83.599292,11.565589 -3.243372,7.218654 h -1.119393 l -1.636037,-5.640022 -2.482758,5.640022 h -1.119393 l -2.095275,-7.218654 h 1.176798 l 1.592983,5.840938 2.554514,-5.840938 h 1.018935 l 1.621686,5.869641 2.540162,-5.869641 z"
         style="fill:#4d4d4d;stroke-width:0.336357"
         id="path1092" />
      <path
         d="m 85.122539,11.565589 h 1.162447 l -0.574048,7.218654 h -1.162447 z m 1.521227,-3.0568056 -0.100458,1.3203104 h -1.43512 l 0.11481,-1.3203104 z"
         style="fill:#4d4d4d;stroke-width:0.336357"
         id="path1094" />
      <path
         d="m 92.029497,11.393375 q 1.205501,0 1.836954,0.645804 0.645804,0.631452 0.645804,1.851304 0,0.258322 -0.01435,0.387483 l -0.35878,4.506277 h -1.148096 l 0.35878,-4.434521 q 0.01435,-0.100459 0.01435,-0.301375 0,-1.679091 -1.607334,-1.679091 -1.018936,0 -1.621686,0.602751 -0.60275,0.60275 -0.688858,1.67909 l -0.330077,4.133146 h -1.162447 l 0.416184,-5.195135 q 0.05741,-0.588399 0.05741,-1.349013 0,-0.444887 -0.01435,-0.674506 h 1.090691 l 0.0287,1.19115 q 0.35878,-0.660156 1.004584,-1.004584 0.660155,-0.35878 1.492524,-0.35878 z"
         style="fill:#4d4d4d;stroke-width:0.336357"
         id="path1096" />
      <path
         d="m 103.3517,11.565589 -0.57404,7.146898 q -0.25833,3.272073 -3.401239,3.272073 -1.664739,0 -2.884591,-0.760613 l 0.301375,-0.94718 q 0.660155,0.416185 1.248555,0.5884 0.60275,0.172214 1.349012,0.172214 2.052218,0 2.253138,-2.253138 l 0.11481,-1.478174 q -0.34443,0.60275 -0.99023,0.932828 -0.64581,0.330078 -1.40642,0.330078 -1.43512,0 -2.281841,-0.904126 -0.846721,-0.904126 -0.846721,-2.425353 0,-1.133745 0.416185,-2.009168 0.430536,-0.875423 1.19115,-1.349013 0.774965,-0.48794 1.7939,-0.48794 0.875427,0 1.506877,0.373131 0.6458,0.373131 0.97588,1.047637 l 0.0861,-1.248554 z m -3.731308,6.041855 q 1.090688,0 1.707788,-0.760613 0.63146,-0.774965 0.63146,-2.109627 0,-1.148096 -0.5884,-1.765197 -0.57405,-0.617102 -1.621688,-0.617102 -1.090691,0 -1.722144,0.774965 -0.617101,0.760613 -0.617101,2.109626 0,1.148096 0.559697,1.765198 0.574048,0.60275 1.650388,0.60275 z"
         style="fill:#4d4d4d;stroke-width:0.336357"
         id="path1098" />
      <path
         d="m 110.51631,16.430646 -0.0144,0.24397 q 0,0.674507 0.30137,0.947179 0.30138,0.272673 0.86108,0.272673 0.41618,0 0.76061,-0.129161 l -0.0718,0.975882 q -0.43053,0.143512 -0.99023,0.143512 -0.96153,0 -1.49252,-0.502292 -0.531,-0.516643 -0.531,-1.506876 0,-0.186566 0.0143,-0.287024 l 0.31573,-4.104443 h -1.40642 l 0.0718,-0.918477 h 1.40641 l 0.14352,-1.8513048 1.19115,-0.4161848 -0.17222,2.2674896 h 2.06657 l -0.0861,0.918477 h -2.05222 z"
         style="fill:#4d4d4d;stroke-width:0.336357"
         id="path1100" />
      <path
         d="m 117.87287,11.393375 q 1.2055,0 1.83696,0.645804 0.6458,0.631452 0.6458,1.851304 0,0.258322 -0.0144,0.387483 l -0.35878,4.506277 h -1.1481 l 0.35878,-4.434521 q 0.0144,-0.100459 0.0144,-0.301375 0,-1.679091 -1.60734,-1.679091 -1.01893,0 -1.62168,0.602751 -0.60276,0.60275 -0.68886,1.67909 l -0.33008,4.133146 h -1.16245 L 114.6295,8.2217594 h 1.16245 l -0.35878,4.4201696 q 0.37313,-0.60275 1.00458,-0.918477 0.64581,-0.330077 1.43512,-0.330077 z"
         style="fill:#4d4d4d;stroke-width:0.336357"
         id="path1102" />
      <path
         d="m 122.79444,11.565589 h 1.16244 l -0.57404,7.218654 h -1.16245 z m 1.52122,-3.0568056 -0.10045,1.3203104 h -1.43512 l 0.11481,-1.3203104 z"
         style="fill:#4d4d4d;stroke-width:0.336357"
         id="path1104" />
      <path
         d="m 128.15147,18.884701 q -0.83237,0 -1.57863,-0.229619 -0.74626,-0.243971 -1.32031,-0.703209 l 0.45924,-0.861072 q 0.5884,0.459238 1.1768,0.674506 0.5884,0.200917 1.27725,0.200917 1.7652,0 1.7652,-1.105042 0,-0.487941 -0.43053,-0.731911 -0.41619,-0.258322 -1.29161,-0.502292 -0.76062,-0.22962 -1.23421,-0.430536 -0.45923,-0.200917 -0.78931,-0.602751 -0.33008,-0.401833 -0.33008,-1.047637 0,-0.975882 0.77497,-1.564281 0.77496,-0.588399 2.06657,-0.588399 0.77496,0 1.46382,0.258321 0.68886,0.243971 1.11939,0.688858 l -0.45923,0.846721 q -0.99024,-0.861072 -2.12398,-0.861072 -0.83237,0 -1.29161,0.301375 -0.44489,0.301375 -0.44489,0.861072 0,0.487941 0.41619,0.746262 0.43053,0.243971 1.30596,0.487941 0.77496,0.229619 1.2342,0.430536 0.47359,0.200917 0.80367,0.60275 0.33008,0.401834 0.33008,1.047638 0,0.975882 -0.78932,1.535578 -0.78932,0.545346 -2.10963,0.545346 z"
         style="fill:#4d4d4d;stroke-width:0.336357"
         id="path1106" />
      <path
         d="m 137.34789,8.2217594 h 1.16245 l -0.84672,10.5624836 h -1.16245 z"
         style="fill:#4d4d4d;stroke-width:0.336357"
         id="path1108" />
      <path
         d="m 140.93974,15.139038 v 0.287024 q 0,1.191149 0.5884,1.851305 0.5884,0.660155 1.70779,0.660155 1.34902,0 2.36795,-0.83237 l 0.34443,0.846721 q -0.45924,0.430536 -1.21985,0.688858 -0.76062,0.24397 -1.53558,0.24397 -1.04764,0 -1.8226,-0.430536 -0.76062,-0.430536 -1.1768,-1.219852 -0.41619,-0.789316 -0.41619,-1.836954 0,-1.176798 0.43054,-2.080924 0.44489,-0.918476 1.24855,-1.420768 0.80367,-0.502292 1.86566,-0.502292 1.37771,0 2.18138,0.803667 0.80367,0.789316 0.80367,2.281841 0,0.315726 -0.043,0.660155 z m 2.4397,-2.855889 q -0.94717,0 -1.54993,0.545346 -0.60275,0.530994 -0.80366,1.549929 h 4.2623 q 0.0144,-1.004584 -0.50229,-1.549929 -0.50229,-0.545346 -1.40642,-0.545346 z"
         style="fill:#4d4d4d;stroke-width:0.336357"
         id="path1110" />
      <path
         d="m 150.2669,18.884701 q -0.83237,0 -1.57863,-0.229619 -0.74627,-0.243971 -1.32031,-0.703209 l 0.45923,-0.861072 q 0.5884,0.459238 1.1768,0.674506 0.5884,0.200917 1.27726,0.200917 1.7652,0 1.7652,-1.105042 0,-0.487941 -0.43054,-0.731911 -0.41618,-0.258322 -1.29161,-0.502292 -0.76061,-0.22962 -1.2342,-0.430536 -0.45924,-0.200917 -0.78932,-0.602751 -0.33007,-0.401833 -0.33007,-1.047637 0,-0.975882 0.77496,-1.564281 0.77497,-0.588399 2.06657,-0.588399 0.77497,0 1.46383,0.258321 0.68885,0.243971 1.11939,0.688858 l -0.45924,0.846721 q -0.99023,-0.861072 -2.12398,-0.861072 -0.83237,0 -1.2916,0.301375 -0.44489,0.301375 -0.44489,0.861072 0,0.487941 0.41618,0.746262 0.43054,0.243971 1.30596,0.487941 0.77497,0.229619 1.23421,0.430536 0.47359,0.200917 0.80366,0.60275 0.33008,0.401834 0.33008,1.047638 0,0.975882 -0.78932,1.535578 -0.78931,0.545346 -2.10962,0.545346 z"
         style="fill:#4d4d4d;stroke-width:0.336357"
         id="path1112" />
      <path
         d="m 157.38644,18.884701 q -0.83237,0 -1.57864,-0.229619 -0.74626,-0.243971 -1.32031,-0.703209 l 0.45924,-0.861072 q 0.5884,0.459238 1.1768,0.674506 0.5884,0.200917 1.27726,0.200917 1.76519,0 1.76519,-1.105042 0,-0.487941 -0.43053,-0.731911 -0.41619,-0.258322 -1.29161,-0.502292 -0.76061,-0.22962 -1.2342,-0.430536 -0.45924,-0.200917 -0.78932,-0.602751 -0.33008,-0.401833 -0.33008,-1.047637 0,-0.975882 0.77497,-1.564281 0.77496,-0.588399 2.06657,-0.588399 0.77497,0 1.46382,0.258321 0.68886,0.243971 1.1194,0.688858 l -0.45924,0.846721 q -0.99023,-0.861072 -2.12398,-0.861072 -0.83237,0 -1.29161,0.301375 -0.44488,0.301375 -0.44488,0.861072 0,0.487941 0.41618,0.746262 0.43054,0.243971 1.30596,0.487941 0.77497,0.229619 1.2342,0.430536 0.47359,0.200917 0.80367,0.60275 0.33008,0.401834 0.33008,1.047638 0,0.975882 -0.78932,1.535578 -0.78931,0.545346 -2.10962,0.545346 z"
         style="fill:#4d4d4d;stroke-width:0.336357"
         id="path1114" />
      <path
         d="m 165.16613,18.884701 q -1.00459,0 -1.7652,-0.430536 -0.74626,-0.430536 -1.16245,-1.219852 -0.40183,-0.789316 -0.40183,-1.836954 0,-1.2055 0.43054,-2.109626 0.44488,-0.904126 1.2342,-1.392066 0.78932,-0.502292 1.83695,-0.502292 1.00459,0 1.75085,0.430536 0.76061,0.430536 1.16245,1.234203 0.41618,0.789316 0.41618,1.836953 0,1.205501 -0.44489,2.109627 -0.43053,0.904125 -1.21985,1.392066 -0.78931,0.487941 -1.83695,0.487941 z m 0.0287,-0.947179 q 1.09069,0 1.69344,-0.83237 0.60275,-0.832369 0.60275,-2.253138 0,-1.19115 -0.57405,-1.836954 -0.55969,-0.660155 -1.57863,-0.660155 -1.09069,0 -1.70779,0.83237 -0.6171,0.832369 -0.6171,2.253138 0,1.219852 0.5597,1.865656 0.55969,0.631453 1.62168,0.631453 z"
         style="fill:#4d4d4d;stroke-width:0.336357"
         id="path1116" />
      <path
         d="m 174.26861,11.393375 q 1.2055,0 1.83695,0.645804 0.64581,0.631452 0.64581,1.851304 0,0.258322 -0.0144,0.387483 l -0.35878,4.506277 h -1.1481 l 0.35878,-4.434521 q 0.0144,-0.100459 0.0144,-0.301375 0,-1.679091 -1.60733,-1.679091 -1.01894,0 -1.62169,0.602751 -0.60275,0.60275 -0.68886,1.67909 l -0.33007,4.133146 h -1.16245 l 0.41618,-5.195135 q 0.0574,-0.588399 0.0574,-1.349013 0,-0.444887 -0.0144,-0.674506 h 1.09069 l 0.0287,1.19115 q 0.35878,-0.660156 1.00459,-1.004584 0.66015,-0.35878 1.49252,-0.35878 z"
         style="fill:#4d4d4d;stroke-width:0.336357"
         id="path1118" />
      <path
         d="m 179.99384,17.306069 -0.0718,1.061989 q -0.0574,0.617101 -0.30137,1.105042 -0.22962,0.502292 -0.73191,0.961531 l -0.51664,-0.416185 q 0.6171,-0.645804 0.73191,-1.234203 h -0.68886 l 0.11481,-1.478174 z"
         style="fill:#4d4d4d;stroke-width:0.336357"
         id="path1120" />
      <path
         d="m 186.51197,8.2217594 h 1.16245 L 186.8277,18.784243 h -1.16245 z"
         style="fill:#4d4d4d;stroke-width:0.336357"
         id="path1122" />
      <path
         d="m 190.1038,15.139038 v 0.287024 q 0,1.191149 0.5884,1.851305 0.5884,0.660155 1.70779,0.660155 1.34902,0 2.36795,-0.83237 l 0.34443,0.846721 q -0.45924,0.430536 -1.21985,0.688858 -0.76061,0.24397 -1.53558,0.24397 -1.04764,0 -1.8226,-0.430536 -0.76061,-0.430536 -1.1768,-1.219852 -0.41618,-0.789316 -0.41618,-1.836954 0,-1.176798 0.43053,-2.080924 0.44489,-0.918476 1.24856,-1.420768 0.80366,-0.502292 1.86565,-0.502292 1.37772,0 2.18138,0.803667 0.80367,0.789316 0.80367,2.281841 0,0.315726 -0.043,0.660155 z m 2.43971,-2.855889 q -0.94718,0 -1.54993,0.545346 -0.60275,0.530994 -0.80367,1.549929 h 4.26231 q 0.0143,-1.004584 -0.5023,-1.549929 -0.50229,-0.545346 -1.40641,-0.545346 z"
         style="fill:#4d4d4d;stroke-width:0.336357"
         id="path1124" />
      <path
         d="m 203.83678,11.565589 -0.57405,7.218654 h -1.13374 l 0.10045,-1.162448 q -0.34442,0.602751 -0.99023,0.932828 -0.6458,0.330078 -1.40642,0.330078 -0.91847,0 -1.62168,-0.416185 -0.68886,-0.430536 -1.07634,-1.219852 -0.37313,-0.789316 -0.37313,-1.851305 0,-1.191149 0.41618,-2.095275 0.43054,-0.904125 1.19115,-1.406417 0.77497,-0.502292 1.77955,-0.502292 0.86107,0 1.49253,0.387482 0.6458,0.373131 0.96153,1.061989 l 0.10045,-1.277257 z m -3.70261,6.371933 q 1.06199,0 1.67909,-0.818019 0.6171,-0.832369 0.6171,-2.238787 0,-1.234203 -0.5597,-1.880007 -0.55969,-0.645804 -1.60733,-0.645804 -1.09069,0 -1.70779,0.818018 -0.6171,0.803668 -0.6171,2.238788 0,1.191149 0.57404,1.865656 0.57405,0.660155 1.62169,0.660155 z"
         style="fill:#4d4d4d;stroke-width:0.336357"
         id="path1126" />
      <path
         d="m 209.4425,11.393375 q 0.37313,0 0.6458,0.08611 l -0.10046,1.047637 q -0.37313,-0.114809 -0.74626,-0.114809 -1.04764,0 -1.60733,0.660155 -0.5597,0.645804 -0.61711,1.592983 l -0.34443,4.118795 h -1.16244 l 0.41618,-5.195135 q 0.0574,-0.975881 0.0574,-1.463822 0,-0.373131 -0.0143,-0.559697 h 1.09069 l 0.0143,1.162447 q 0.34443,-0.631453 0.97588,-0.975881 0.6458,-0.35878 1.39207,-0.35878 z"
         style="fill:#4d4d4d;stroke-width:0.336357"
         id="path1128" />
      <path
         d="m 214.77151,11.393375 q 1.2055,0 1.83695,0.645804 0.64581,0.631452 0.64581,1.851304 0,0.258322 -0.0143,0.387483 l -0.35878,4.506277 h -1.1481 l 0.35878,-4.434521 q 0.0143,-0.100459 0.0143,-0.301375 0,-1.679091 -1.60733,-1.679091 -1.01894,0 -1.62169,0.602751 -0.60275,0.60275 -0.68886,1.67909 l -0.33007,4.133146 h -1.16245 l 0.41618,-5.195135 q 0.0574,-0.588399 0.0574,-1.349013 0,-0.444887 -0.0144,-0.674506 h 1.09069 l 0.0287,1.19115 q 0.35878,-0.660156 1.00458,-1.004584 0.66016,-0.35878 1.49253,-0.35878 z"
         style="fill:#4d4d4d;stroke-width:0.336357"
         id="path1130" />
      <path
         d="m 220.12361,15.139038 v 0.287024 q 0,1.191149 0.5884,1.851305 0.5884,0.660155 1.70779,0.660155 1.34901,0 2.36795,-0.83237 l 0.34443,0.846721 q -0.45924,0.430536 -1.21985,0.688858 -0.76062,0.24397 -1.53558,0.24397 -1.04764,0 -1.82261,-0.430536 -0.76061,-0.430536 -1.17679,-1.219852 -0.41619,-0.789316 -0.41619,-1.836954 0,-1.176798 0.43054,-2.080924 0.44488,-0.918476 1.24855,-1.420768 0.80367,-0.502292 1.86566,-0.502292 1.37771,0 2.18138,0.803667 0.80367,0.789316 0.80367,2.281841 0,0.315726 -0.0431,0.660155 z m 2.4397,-2.855889 q -0.94718,0 -1.54993,0.545346 -0.60275,0.530994 -0.80366,1.549929 h 4.2623 q 0.0144,-1.004584 -0.50229,-1.549929 -0.50229,-0.545346 -1.40642,-0.545346 z"
         style="fill:#4d4d4d;stroke-width:0.336357"
         id="path1132" />
      <path
         d="m 230.85718,11.393375 q 0.37314,0 0.64581,0.08611 l -0.10046,1.047637 q -0.37313,-0.114809 -0.74626,-0.114809 -1.04764,0 -1.60734,0.660155 -0.55969,0.645804 -0.6171,1.592983 l -0.34443,4.118795 h -1.16244 l 0.41618,-5.195135 q 0.0574,-0.975881 0.0574,-1.463822 0,-0.373131 -0.0144,-0.559697 h 1.0907 l 0.0144,1.162447 q 0.34443,-0.631453 0.97588,-0.975881 0.6458,-0.35878 1.39206,-0.35878 z"
         style="fill:#4d4d4d;stroke-width:0.336357"
         id="path1134" />
      <path
         d="m 234.55216,18.884701 q -0.83237,0 -1.57863,-0.229619 -0.74626,-0.243971 -1.32031,-0.703209 l 0.45924,-0.861072 q 0.5884,0.459238 1.1768,0.674506 0.5884,0.200917 1.27725,0.200917 1.7652,0 1.7652,-1.105042 0,-0.487941 -0.43054,-0.731911 -0.41618,-0.258322 -1.2916,-0.502292 -0.76062,-0.22962 -1.23421,-0.430536 -0.45924,-0.200917 -0.78931,-0.602751 -0.33008,-0.401833 -0.33008,-1.047637 0,-0.975882 0.77496,-1.564281 0.77497,-0.588399 2.06658,-0.588399 0.77496,0 1.46382,0.258321 0.68886,0.243971 1.11939,0.688858 l -0.45924,0.846721 q -0.99023,-0.861072 -2.12397,-0.861072 -0.83237,0 -1.29161,0.301375 -0.44489,0.301375 -0.44489,0.861072 0,0.487941 0.41619,0.746262 0.43053,0.243971 1.30596,0.487941 0.77496,0.229619 1.2342,0.430536 0.47359,0.200917 0.80367,0.60275 0.33007,0.401834 0.33007,1.047638 0,0.975882 -0.78931,1.535578 -0.78932,0.545346 -2.10963,0.545346 z"
         style="fill:#4d4d4d;stroke-width:0.336357"
         id="path1136" />
      <path
         d="m 245.42768,18.884701 q -0.83237,0 -1.57863,-0.229619 -0.74626,-0.243971 -1.32031,-0.703209 l 0.45924,-0.861072 q 0.5884,0.459238 1.17679,0.674506 0.5884,0.200917 1.27726,0.200917 1.7652,0 1.7652,-1.105042 0,-0.487941 -0.43054,-0.731911 -0.41618,-0.258322 -1.2916,-0.502292 -0.76062,-0.22962 -1.23421,-0.430536 -0.45924,-0.200917 -0.78931,-0.602751 -0.33008,-0.401833 -0.33008,-1.047637 0,-0.975882 0.77496,-1.564281 0.77497,-0.588399 2.06658,-0.588399 0.77496,0 1.46382,0.258321 0.68886,0.243971 1.11939,0.688858 l -0.45924,0.846721 q -0.99023,-0.861072 -2.12397,-0.861072 -0.83237,0 -1.29161,0.301375 -0.44489,0.301375 -0.44489,0.861072 0,0.487941 0.41619,0.746262 0.43053,0.243971 1.30595,0.487941 0.77497,0.229619 1.23421,0.430536 0.47359,0.200917 0.80367,0.60275 0.33007,0.401834 0.33007,1.047638 0,0.975882 -0.78931,1.535578 -0.78932,0.545346 -2.10963,0.545346 z"
         style="fill:#4d4d4d;stroke-width:0.336357"
         id="path1138" />
      <path
         d="m 254.09715,11.393375 q 1.2055,0 1.83695,0.645804 0.6458,0.631452 0.6458,1.851304 0,0.258322 -0.0144,0.387483 l -0.35878,4.506277 h -1.14809 l 0.35878,-4.434521 q 0.0144,-0.100459 0.0144,-0.301375 0,-1.679091 -1.60734,-1.679091 -1.01893,0 -1.62168,0.602751 -0.60275,0.60275 -0.68886,1.67909 l -0.33008,4.133146 h -1.16244 l 0.83237,-10.5624836 h 1.16244 l -0.35878,4.4201696 q 0.37313,-0.60275 1.00459,-0.918477 0.6458,-0.330077 1.43512,-0.330077 z"
         style="fill:#4d4d4d;stroke-width:0.336357"
         id="path1140" />
      <path
         d="m 261.61629,18.884701 q -1.00458,0 -1.76519,-0.430536 -0.74627,-0.430536 -1.16245,-1.219852 -0.40184,-0.789316 -0.40184,-1.836954 0,-1.2055 0.43054,-2.109626 0.44489,-0.904126 1.2342,-1.392066 0.78932,-0.502292 1.83696,-0.502292 1.00458,0 1.75084,0.430536 0.76062,0.430536 1.16245,1.234203 0.41619,0.789316 0.41619,1.836953 0,1.205501 -0.44489,2.109627 -0.43054,0.904125 -1.21985,1.392066 -0.78932,0.487941 -1.83696,0.487941 z m 0.0287,-0.947179 q 1.09069,0 1.69344,-0.83237 0.60275,-0.832369 0.60275,-2.253138 0,-1.19115 -0.57405,-1.836954 -0.5597,-0.660155 -1.57863,-0.660155 -1.09069,0 -1.7078,0.83237 -0.6171,0.832369 -0.6171,2.253138 0,1.219852 0.5597,1.865656 0.5597,0.631453 1.62169,0.631453 z"
         style="fill:#4d4d4d;stroke-width:0.336357"
         id="path1142" />
      <path
         d="m 273.25891,11.565589 -0.5597,7.218654 h -1.13374 l 0.0861,-1.176799 q -0.35878,0.617102 -0.99023,0.947179 -0.63145,0.330078 -1.40642,0.330078 -1.1768,0 -1.80825,-0.617102 -0.63145,-0.631452 -0.63145,-1.836953 0,-0.272673 0.0143,-0.416185 l 0.34443,-4.448872 h 1.16245 l -0.35878,4.377116 q -0.0144,0.100458 -0.0144,0.301375 0,1.679091 1.57864,1.679091 0.97588,0 1.56428,-0.602751 0.5884,-0.60275 0.6745,-1.67909 l 0.33008,-4.075741 z"
         style="fill:#4d4d4d;stroke-width:0.336357"
         id="path1144" />
      <path
         d="m 275.75849,8.2217594 h 1.16245 l -0.84672,10.5624836 h -1.16245 z"
         style="fill:#4d4d4d;stroke-width:0.336357"
         id="path1146" />
      <path
         d="m 285.52134,8.2217594 -0.83237,10.5624836 h -1.13374 l 0.0861,-1.176799 q -0.34443,0.602751 -0.99023,0.947179 -0.6458,0.330078 -1.40642,0.330078 -0.90412,0 -1.60733,-0.416185 -0.68886,-0.430536 -1.07634,-1.219852 -0.37313,-0.789316 -0.37313,-1.836953 0,-1.19115 0.41618,-2.095276 0.43054,-0.918476 1.19115,-1.420768 0.77497,-0.502292 1.77955,-0.502292 0.86107,0 1.49252,0.373131 0.63146,0.373131 0.94718,1.047637 l 0.35878,-4.5923836 z m -3.97528,9.7157626 q 1.07634,0 1.69344,-0.818019 0.6171,-0.832369 0.6171,-2.238787 0,-1.234203 -0.5597,-1.880007 -0.55969,-0.645804 -1.62168,-0.645804 -1.07634,0 -1.69344,0.818018 -0.6171,0.803668 -0.6171,2.210085 0,1.219852 0.57404,1.894359 0.57405,0.660155 1.60734,0.660155 z"
         style="fill:#4d4d4d;stroke-width:0.336357"
         id="path1148" />
      <path
         d="m 294.72519,11.393375 q 0.90413,0 1.59298,0.430536 0.70321,0.430536 1.09069,1.219852 0.38749,0.789316 0.38749,1.836953 0,1.19115 -0.43054,2.109627 -0.41618,0.904125 -1.19115,1.406417 -0.77496,0.487941 -1.7652,0.487941 -0.86107,0 -1.50687,-0.35878 -0.63145,-0.373131 -0.94718,-1.047638 l -0.10046,1.30596 h -1.1481 l 0.83237,-10.5624836 h 1.16245 l -0.37313,4.4345206 q 0.35878,-0.588399 1.00458,-0.918477 0.64581,-0.344428 1.39207,-0.344428 z m -0.40183,6.544147 q 1.06199,0 1.67909,-0.803667 0.6171,-0.818019 0.6171,-2.253139 0,-1.205501 -0.57405,-1.865656 -0.57405,-0.660155 -1.60733,-0.660155 -1.07634,0 -1.69345,0.818018 -0.6171,0.818019 -0.6171,2.238788 0,1.219852 0.5597,1.880007 0.57405,0.645804 1.63604,0.645804 z"
         style="fill:#4d4d4d;stroke-width:0.336357"
         id="path1150" />
      <path
         d="m 300.31654,15.139038 v 0.287024 q 0,1.191149 0.5884,1.851305 0.5884,0.660155 1.70779,0.660155 1.34902,0 2.36795,-0.83237 l 0.34443,0.846721 q -0.45924,0.430536 -1.21985,0.688858 -0.76062,0.24397 -1.53558,0.24397 -1.04764,0 -1.8226,-0.430536 -0.76062,-0.430536 -1.1768,-1.219852 -0.41619,-0.789316 -0.41619,-1.836954 0,-1.176798 0.43054,-2.080924 0.44489,-0.918476 1.24855,-1.420768 0.80367,-0.502292 1.86566,-0.502292 1.37772,0 2.18138,0.803667 0.80367,0.789316 0.80367,2.281841 0,0.315726 -0.043,0.660155 z m 2.43971,-2.855889 q -0.94718,0 -1.54993,0.545346 -0.60275,0.530994 -0.80367,1.549929 h 4.2623 q 0.0144,-1.004584 -0.50229,-1.549929 -0.50229,-0.545346 -1.40641,-0.545346 z"
         style="fill:#4d4d4d;stroke-width:0.336357"
         id="path1152" />
      <path
         d="m 317.8055,11.565589 -0.57405,7.218654 h -1.13374 l 0.10045,-1.162448 q -0.34442,0.602751 -0.99023,0.932828 -0.6458,0.330078 -1.40642,0.330078 -0.91847,0 -1.62168,-0.416185 -0.68886,-0.430536 -1.07634,-1.219852 -0.37313,-0.789316 -0.37313,-1.851305 0,-1.191149 0.41618,-2.095275 0.43054,-0.904125 1.19115,-1.406417 0.77497,-0.502292 1.77955,-0.502292 0.86107,0 1.49253,0.387482 0.6458,0.373131 0.96153,1.061989 l 0.10045,-1.277257 z m -3.70261,6.371933 q 1.06199,0 1.67909,-0.818019 0.6171,-0.832369 0.6171,-2.238787 0,-1.234203 -0.5597,-1.880007 -0.55969,-0.645804 -1.60733,-0.645804 -1.09069,0 -1.70779,0.818018 -0.6171,0.803668 -0.6171,2.238788 0,1.191149 0.57404,1.865656 0.57405,0.660155 1.62169,0.660155 z"
         style="fill:#4d4d4d;stroke-width:0.336357"
         id="path1154" />
      <path
         d="m 323.51166,11.393375 q 0.90412,0 1.59298,0.430536 0.70321,0.430536 1.09069,1.219852 0.38749,0.789316 0.38749,1.836953 0,1.19115 -0.43054,2.109627 -0.41618,0.904125 -1.19115,1.406417 -0.77496,0.487941 -1.7652,0.487941 -0.86107,0 -1.50687,-0.35878 -0.63146,-0.373131 -0.94718,-1.047638 l -0.10046,1.30596 h -1.1481 l 0.83237,-10.5624836 h 1.16245 l -0.37313,4.4345206 q 0.35878,-0.588399 1.00458,-0.918477 0.64581,-0.344428 1.39207,-0.344428 z m -0.40183,6.544147 q 1.06198,0 1.67909,-0.803667 0.6171,-0.818019 0.6171,-2.253139 0,-1.205501 -0.57405,-1.865656 -0.57405,-0.660155 -1.60734,-0.660155 -1.07634,0 -1.69344,0.818018 -0.6171,0.818019 -0.6171,2.238788 0,1.219852 0.5597,1.880007 0.57405,0.645804 1.63604,0.645804 z"
         style="fill:#4d4d4d;stroke-width:0.336357"
         id="path1156" />
      <path
         d="m 328.93083,8.2217594 h 1.16244 l -0.84672,10.5624836 h -1.16245 z"
         style="fill:#4d4d4d;stroke-width:0.336357"
         id="path1158" />
      <path
         d="m 332.52266,15.139038 v 0.287024 q 0,1.191149 0.5884,1.851305 0.5884,0.660155 1.70779,0.660155 1.34901,0 2.36795,-0.83237 l 0.34443,0.846721 q -0.45924,0.430536 -1.21986,0.688858 -0.76061,0.24397 -1.53557,0.24397 -1.04764,0 -1.82261,-0.430536 -0.76061,-0.430536 -1.1768,-1.219852 -0.41618,-0.789316 -0.41618,-1.836954 0,-1.176798 0.43054,-2.080924 0.44488,-0.918476 1.24855,-1.420768 0.80367,-0.502292 1.86566,-0.502292 1.37771,0 2.18138,0.803667 0.80367,0.789316 0.80367,2.281841 0,0.315726 -0.0431,0.660155 z m 2.4397,-2.855889 q -0.94718,0 -1.54993,0.545346 -0.60275,0.530994 -0.80367,1.549929 h 4.26231 q 0.0144,-1.004584 -0.50229,-1.549929 -0.50229,-0.545346 -1.40642,-0.545346 z"
         style="fill:#4d4d4d;stroke-width:0.336357"
         id="path1160" />
      <path
         d="m 344.81648,16.430646 -0.0144,0.24397 q 0,0.674507 0.30137,0.947179 0.30138,0.272673 0.86108,0.272673 0.41618,0 0.76061,-0.129161 l -0.0718,0.975882 q -0.43053,0.143512 -0.99023,0.143512 -0.96153,0 -1.49252,-0.502292 -0.531,-0.516643 -0.531,-1.506876 0,-0.186566 0.0143,-0.287024 l 0.31573,-4.104443 h -1.40642 l 0.0718,-0.918477 h 1.40642 l 0.14351,-1.8513048 1.19115,-0.4161848 -0.17222,2.2674896 h 2.06658 l -0.0861,0.918477 h -2.05222 z"
         style="fill:#4d4d4d;stroke-width:0.336357"
         id="path1162" />
      <path
         d="m 351.28325,18.884701 q -1.00458,0 -1.76519,-0.430536 -0.74627,-0.430536 -1.16245,-1.219852 -0.40183,-0.789316 -0.40183,-1.836954 0,-1.2055 0.43053,-2.109626 0.44489,-0.904126 1.23421,-1.392066 0.78931,-0.502292 1.83695,-0.502292 1.00458,0 1.75085,0.430536 0.76061,0.430536 1.16244,1.234203 0.41619,0.789316 0.41619,1.836953 0,1.205501 -0.44489,2.109627 -0.43054,0.904125 -1.21985,1.392066 -0.78932,0.487941 -1.83696,0.487941 z m 0.0287,-0.947179 q 1.09069,0 1.69344,-0.83237 0.60275,-0.832369 0.60275,-2.253138 0,-1.19115 -0.57405,-1.836954 -0.5597,-0.660155 -1.57863,-0.660155 -1.09069,0 -1.70779,0.83237 -0.61711,0.832369 -0.61711,2.253138 0,1.219852 0.5597,1.865656 0.5597,0.631453 1.62169,0.631453 z"
         style="fill:#4d4d4d;stroke-width:0.336357"
         id="path1164" />
      <path
         d="m 357.44977,17.306069 -0.10045,1.478174 h -1.47818 l 0.11481,-1.478174 z"
         style="fill:#4d4d4d;stroke-width:0.336357"
         id="path1166" />
      <path
         d="m 360.7573,17.306069 -0.10046,1.478174 h -1.47817 l 0.11481,-1.478174 z"
         style="fill:#4d4d4d;stroke-width:0.336357"
         id="path1168" />
      <path
         d="m 364.06479,17.306069 -0.10045,1.478174 h -1.47818 l 0.11481,-1.478174 z"
         style="fill:#4d4d4d;stroke-width:0.336357"
         id="path1170" />
    </g>
    <g
       aria-label="import data into an indexed DataFrame with read_csv"
       id="text31583-5"
       style="font-style:italic;font-variant:normal;font-weight:bold;font-stretch:normal;font-size:17.9391px;line-height:1.25;font-family:Mulish;-inkscape-font-specification:'Mulish Bold Italic';stroke-width:0.336357">
      <path
         d="M 21.829312,41.280095 H 24.0717 l -0.717564,9.059245 h -2.242388 z m 2.672926,-4.108054 -0.161452,2.206509 h -2.493535 l 0.161452,-2.206509 z"
         style="font-style:italic;font-variant:normal;font-weight:bold;font-stretch:normal;font-size:17.9391px;font-family:Mulish;-inkscape-font-specification:'Mulish Bold Italic';stroke-width:0.336357"
         id="path903" />
      <path
         d="m 37.10838,41.046886 q 1.435128,0 2.170631,0.825199 0.735503,0.825198 0.735503,2.403839 0,0.358782 -0.01794,0.538173 l -0.430538,5.525243 h -2.242388 l 0.430539,-5.453486 q 0.01794,-0.143513 0.01794,-0.4126 0,-0.843137 -0.358782,-1.237797 -0.358782,-0.4126 -1.094285,-0.4126 -0.932834,0 -1.488946,0.627869 -0.538173,0.627868 -0.627868,1.865666 l -0.39466,5.022948 h -2.242388 l 0.430539,-5.417608 q 0.01794,-0.143513 0.01794,-0.39466 0,-0.861077 -0.358782,-1.273676 -0.358782,-0.430539 -1.094285,-0.430539 -0.950773,0 -1.488946,0.627869 -0.538173,0.627868 -0.627868,1.865666 l -0.394661,5.022948 h -2.242387 l 0.520234,-6.493954 q 0.07176,-1.219859 0.07176,-1.847727 0,-0.484356 -0.01794,-0.717564 h 2.098875 l 0.03588,1.291615 q 0.986651,-1.524824 2.888195,-1.524824 1.00459,0 1.668337,0.4126 0.681685,0.412599 0.968711,1.201919 0.502295,-0.771381 1.291615,-1.18398 0.80726,-0.430539 1.775971,-0.430539 z"
         style="font-style:italic;font-variant:normal;font-weight:bold;font-stretch:normal;font-size:17.9391px;font-family:Mulish;-inkscape-font-specification:'Mulish Bold Italic';stroke-width:0.336357"
         id="path905" />
      <path
         d="m 47.610603,41.046886 q 1.130164,0 2.00918,0.538173 0.879016,0.520234 1.363371,1.524824 0.484356,0.98665 0.484356,2.314144 0,1.488945 -0.538173,2.637047 -0.538173,1.148103 -1.524823,1.793911 -0.968712,0.627868 -2.242388,0.627868 -0.986651,0 -1.722154,-0.39466 -0.735503,-0.412599 -1.166041,-1.148103 l -0.430539,5.274096 h -2.224448 l 0.825199,-10.3688 q 0.07176,-0.735503 0.07176,-1.704215 0,-0.574051 -0.01794,-0.861076 h 2.098875 l 0.03588,1.38131 q 0.430538,-0.753442 1.219859,-1.18398 0.78932,-0.430539 1.758031,-0.430539 z m -0.825198,7.695874 q 1.148102,0 1.775971,-0.843137 0.645807,-0.861077 0.645807,-2.367962 0,-1.327493 -0.609929,-2.027118 -0.59199,-0.717564 -1.686275,-0.717564 -1.130164,0 -1.775971,0.879016 -0.645808,0.861077 -0.645808,2.332083 0,1.345432 0.59199,2.045057 0.591991,0.699625 1.704215,0.699625 z"
         style="font-style:italic;font-variant:normal;font-weight:bold;font-stretch:normal;font-size:17.9391px;font-family:Mulish;-inkscape-font-specification:'Mulish Bold Italic';stroke-width:0.336357"
         id="path907" />
      <path
         d="m 57.425813,50.482853 q -1.381311,0 -2.403839,-0.538173 -1.022529,-0.556112 -1.578641,-1.560702 -0.556112,-1.004589 -0.556112,-2.350022 0,-1.506884 0.574051,-2.637048 0.59199,-1.130163 1.650397,-1.740092 1.058407,-0.60993 2.457657,-0.60993 1.363372,0 2.3859,0.556112 1.022529,0.556112 1.560702,1.560702 0.556112,1.00459 0.556112,2.332083 0,1.524824 -0.574051,2.654987 -0.574051,1.130163 -1.632458,1.740093 -1.040468,0.59199 -2.439718,0.59199 z m 0,-1.740093 q 1.183981,0 1.79391,-0.896955 0.627869,-0.914894 0.627869,-2.421778 0,-1.273676 -0.591991,-1.955362 -0.574051,-0.681686 -1.668336,-0.681686 -1.20192,0 -1.829788,0.914894 -0.627869,0.896955 -0.627869,2.3859 0,2.654987 2.296205,2.654987 z"
         style="font-style:italic;font-variant:normal;font-weight:bold;font-stretch:normal;font-size:17.9391px;font-family:Mulish;-inkscape-font-specification:'Mulish Bold Italic';stroke-width:0.336357"
         id="path909" />
      <path
         d="m 69.244037,41.064825 q 0.538173,0 0.914894,0.143513 l -0.179391,2.027119 q -0.502294,-0.21527 -1.166041,-0.21527 -1.166042,0 -1.811849,0.663747 -0.645808,0.645808 -0.717564,1.758032 l -0.394661,4.897374 h -2.242387 l 0.520234,-6.493954 q 0.07176,-1.219859 0.07176,-1.847727 0,-0.484356 -0.01794,-0.717564 h 2.098875 l 0.03588,1.38131 q 0.39466,-0.753442 1.166042,-1.166041 0.78932,-0.430539 1.722153,-0.430539 z"
         style="font-style:italic;font-variant:normal;font-weight:bold;font-stretch:normal;font-size:17.9391px;font-family:Mulish;-inkscape-font-specification:'Mulish Bold Italic';stroke-width:0.336357"
         id="path911" />
      <path
         d="m 74.651834,47.020607 q -0.125574,1.59658 1.345432,1.59658 0.4126,0 0.932833,-0.125574 l -0.143512,1.758032 q -0.591991,0.215269 -1.471007,0.215269 -1.417188,0 -2.170631,-0.735503 -0.753442,-0.753442 -0.753442,-2.170631 0,-0.269087 0.01794,-0.4126 l 0.322904,-4.17981 h -1.740093 l 0.143513,-1.686275 h 1.722154 l 0.179391,-2.20651 2.296205,-0.753442 -0.233209,2.959952 h 2.421779 l -0.143513,1.686275 h -2.403839 z"
         style="font-style:italic;font-variant:normal;font-weight:bold;font-stretch:normal;font-size:17.9391px;font-family:Mulish;-inkscape-font-specification:'Mulish Bold Italic';stroke-width:0.336357"
         id="path913" />
      <path
         d="M 92.955884,37.136162 91.897477,50.33934 h -2.206509 l 0.107634,-1.273676 q -0.448477,0.663747 -1.201919,1.040468 -0.753443,0.376721 -1.650398,0.376721 -1.130163,0 -2.009179,-0.520234 -0.879016,-0.538173 -1.363372,-1.524823 -0.484355,-0.986651 -0.484355,-2.314144 0,-1.488946 0.538173,-2.637048 0.538173,-1.166042 1.506884,-1.79391 0.986651,-0.645808 2.260327,-0.645808 0.98665,0 1.722153,0.39466 0.753443,0.394661 1.166042,1.148103 l 0.430538,-5.453487 z M 87.663849,48.74276 q 1.112225,0 1.758032,-0.861077 0.645808,-0.861076 0.645808,-2.332083 0,-1.345432 -0.591991,-2.045057 -0.59199,-0.717564 -1.686275,-0.717564 -1.148102,0 -1.811849,0.861077 -0.645808,0.861077 -0.645808,2.350022 0,1.309554 0.60993,2.027118 0.609929,0.717564 1.722153,0.717564 z"
         style="font-style:italic;font-variant:normal;font-weight:bold;font-stretch:normal;font-size:17.9391px;font-family:Mulish;-inkscape-font-specification:'Mulish Bold Italic';stroke-width:0.336357"
         id="path915" />
      <path
         d="m 103.72186,41.280095 -0.71756,9.059245 h -2.20651 l 0.10764,-1.255737 q -0.46642,0.663747 -1.219864,1.040468 -0.735503,0.358782 -1.614519,0.358782 -1.148102,0 -2.027118,-0.520234 -0.861077,-0.538173 -1.345432,-1.524823 -0.484356,-1.00459 -0.484356,-2.332083 0,-1.488946 0.538173,-2.637048 0.538173,-1.148103 1.506884,-1.775971 0.968712,-0.645808 2.242388,-0.645808 1.004589,0 1.740094,0.4126 0.75344,0.412599 1.16604,1.166041 l 0.10763,-1.345432 z m -4.951188,7.462665 q 1.112224,0 1.758028,-0.861077 0.64581,-0.861076 0.64581,-2.332083 0,-1.345432 -0.59199,-2.045057 -0.591989,-0.717564 -1.686274,-0.717564 -1.148102,0 -1.79391,0.861077 -0.645808,0.861077 -0.645808,2.367961 0,1.309554 0.591991,2.027118 0.609929,0.699625 1.722153,0.699625 z"
         style="font-style:italic;font-variant:normal;font-weight:bold;font-stretch:normal;font-size:17.9391px;font-family:Mulish;-inkscape-font-specification:'Mulish Bold Italic';stroke-width:0.336357"
         id="path917" />
      <path
         d="m 108.56794,47.020607 q -0.12557,1.59658 1.34544,1.59658 0.4126,0 0.93283,-0.125574 l -0.14351,1.758032 q -0.59199,0.215269 -1.47101,0.215269 -1.41719,0 -2.17063,-0.735503 -0.75344,-0.753442 -0.75344,-2.170631 0,-0.269087 0.0179,-0.4126 l 0.3229,-4.17981 h -1.74009 l 0.14351,-1.686275 h 1.72215 l 0.1794,-2.20651 2.2962,-0.753442 -0.23321,2.959952 h 2.42178 l -0.14351,1.686275 h -2.40384 z"
         style="font-style:italic;font-variant:normal;font-weight:bold;font-stretch:normal;font-size:17.9391px;font-family:Mulish;-inkscape-font-specification:'Mulish Bold Italic';stroke-width:0.336357"
         id="path919" />
      <path
         d="m 121.62593,41.280095 -0.71756,9.059245 h -2.20651 l 0.10763,-1.255737 q -0.46641,0.663747 -1.21986,1.040468 -0.7355,0.358782 -1.61451,0.358782 -1.14811,0 -2.02712,-0.520234 -0.86108,-0.538173 -1.34544,-1.524823 -0.48435,-1.00459 -0.48435,-2.332083 0,-1.488946 0.53817,-2.637048 0.53817,-1.148103 1.50689,-1.775971 0.96871,-0.645808 2.24238,-0.645808 1.00459,0 1.7401,0.4126 0.75344,0.412599 1.16604,1.166041 l 0.10763,-1.345432 z m -4.95119,7.462665 q 1.11222,0 1.75803,-0.861077 0.64581,-0.861076 0.64581,-2.332083 0,-1.345432 -0.59199,-2.045057 -0.59199,-0.717564 -1.68628,-0.717564 -1.1481,0 -1.79391,0.861077 -0.6458,0.861077 -0.6458,2.367961 0,1.309554 0.59199,2.027118 0.60993,0.699625 1.72215,0.699625 z"
         style="font-style:italic;font-variant:normal;font-weight:bold;font-stretch:normal;font-size:17.9391px;font-family:Mulish;-inkscape-font-specification:'Mulish Bold Italic';stroke-width:0.336357"
         id="path921" />
      <path
         d="m 128.97339,41.280095 h 2.24239 l -0.71756,9.059245 h -2.24239 z m 2.67293,-4.108054 -0.16145,2.206509 h -2.49354 l 0.16145,-2.206509 z"
         style="font-style:italic;font-variant:normal;font-weight:bold;font-stretch:normal;font-size:17.9391px;font-family:Mulish;-inkscape-font-specification:'Mulish Bold Italic';stroke-width:0.336357"
         id="path923" />
      <path
         d="m 138.74516,41.046886 q 1.52482,0 2.2962,0.843138 0.78932,0.825199 0.78932,2.421779 0,0.340842 -0.0179,0.520233 l -0.44847,5.507304 h -2.22445 l 0.43054,-5.399669 q 0.0179,-0.125574 0.0179,-0.358782 0,-0.861077 -0.43054,-1.309554 -0.4126,-0.448478 -1.2378,-0.448478 -1.04047,0 -1.63246,0.645808 -0.59199,0.627868 -0.68168,1.740093 l -0.4126,5.130582 h -2.24239 l 0.52023,-6.493954 q 0.0718,-0.735503 0.0718,-1.704215 0,-0.574051 -0.0179,-0.861076 h 2.09887 l 0.0359,1.345432 q 0.46642,-0.753442 1.25574,-1.166041 0.80726,-0.4126 1.82979,-0.4126 z"
         style="font-style:italic;font-variant:normal;font-weight:bold;font-stretch:normal;font-size:17.9391px;font-family:Mulish;-inkscape-font-specification:'Mulish Bold Italic';stroke-width:0.336357"
         id="path925" />
      <path
         d="m 146.89876,47.020607 q -0.12558,1.59658 1.34543,1.59658 0.4126,0 0.93283,-0.125574 l -0.14351,1.758032 q -0.59199,0.215269 -1.47101,0.215269 -1.41719,0 -2.17063,-0.735503 -0.75344,-0.753442 -0.75344,-2.170631 0,-0.269087 0.0179,-0.4126 l 0.3229,-4.17981 h -1.74009 l 0.14351,-1.686275 h 1.72216 l 0.17939,-2.20651 2.2962,-0.753442 -0.23321,2.959952 h 2.42178 l -0.14351,1.686275 h -2.40384 z"
         style="font-style:italic;font-variant:normal;font-weight:bold;font-stretch:normal;font-size:17.9391px;font-family:Mulish;-inkscape-font-specification:'Mulish Bold Italic';stroke-width:0.336357"
         id="path927" />
      <path
         d="m 154.96967,50.482853 q -1.38131,0 -2.40384,-0.538173 -1.02253,-0.556112 -1.57864,-1.560702 -0.55611,-1.004589 -0.55611,-2.350022 0,-1.506884 0.57405,-2.637048 0.59199,-1.130163 1.6504,-1.740092 1.05841,-0.60993 2.45766,-0.60993 1.36337,0 2.3859,0.556112 1.02252,0.556112 1.5607,1.560702 0.55611,1.00459 0.55611,2.332083 0,1.524824 -0.57405,2.654987 -0.57405,1.130163 -1.63246,1.740093 -1.04047,0.59199 -2.43972,0.59199 z m 0,-1.740093 q 1.18398,0 1.79391,-0.896955 0.62787,-0.914894 0.62787,-2.421778 0,-1.273676 -0.59199,-1.955362 -0.57405,-0.681686 -1.66834,-0.681686 -1.20192,0 -1.82978,0.914894 -0.62787,0.896955 -0.62787,2.3859 0,2.654987 2.2962,2.654987 z"
         style="font-style:italic;font-variant:normal;font-weight:bold;font-stretch:normal;font-size:17.9391px;font-family:Mulish;-inkscape-font-specification:'Mulish Bold Italic';stroke-width:0.336357"
         id="path929" />
      <path
         d="m 175.47827,41.280095 -0.71756,9.059245 h -2.20651 l 0.10763,-1.255737 q -0.46641,0.663747 -1.21985,1.040468 -0.73551,0.358782 -1.61452,0.358782 -1.14811,0 -2.02712,-0.520234 -0.86108,-0.538173 -1.34543,-1.524823 -0.48436,-1.00459 -0.48436,-2.332083 0,-1.488946 0.53817,-2.637048 0.53818,-1.148103 1.50689,-1.775971 0.96871,-0.645808 2.24238,-0.645808 1.00459,0 1.7401,0.4126 0.75344,0.412599 1.16604,1.166041 l 0.10763,-1.345432 z m -4.95119,7.462665 q 1.11223,0 1.75803,-0.861077 0.64581,-0.861076 0.64581,-2.332083 0,-1.345432 -0.59199,-2.045057 -0.59199,-0.717564 -1.68628,-0.717564 -1.1481,0 -1.79391,0.861077 -0.6458,0.861077 -0.6458,2.367961 0,1.309554 0.59199,2.027118 0.60993,0.699625 1.72215,0.699625 z"
         style="font-style:italic;font-variant:normal;font-weight:bold;font-stretch:normal;font-size:17.9391px;font-family:Mulish;-inkscape-font-specification:'Mulish Bold Italic';stroke-width:0.336357"
         id="path931" />
      <path
         d="m 182.99728,41.046886 q 1.52482,0 2.2962,0.843138 0.78932,0.825199 0.78932,2.421779 0,0.340842 -0.0179,0.520233 l -0.44848,5.507304 h -2.22445 l 0.43054,-5.399669 q 0.0179,-0.125574 0.0179,-0.358782 0,-0.861077 -0.43054,-1.309554 -0.4126,-0.448478 -1.2378,-0.448478 -1.04047,0 -1.63246,0.645808 -0.59199,0.627868 -0.68168,1.740093 l -0.4126,5.130582 h -2.24239 l 0.52023,-6.493954 q 0.0718,-0.735503 0.0718,-1.704215 0,-0.574051 -0.0179,-0.861076 h 2.09888 l 0.0359,1.345432 q 0.46642,-0.753442 1.25574,-1.166041 0.80726,-0.4126 1.82979,-0.4126 z"
         style="font-style:italic;font-variant:normal;font-weight:bold;font-stretch:normal;font-size:17.9391px;font-family:Mulish;-inkscape-font-specification:'Mulish Bold Italic';stroke-width:0.336357"
         id="path933" />
      <path
         d="m 193.65226,41.280095 h 2.24239 l -0.71756,9.059245 h -2.24239 z m 2.67293,-4.108054 -0.16145,2.206509 h -2.49354 l 0.16146,-2.206509 z"
         style="font-style:italic;font-variant:normal;font-weight:bold;font-stretch:normal;font-size:17.9391px;font-family:Mulish;-inkscape-font-specification:'Mulish Bold Italic';stroke-width:0.336357"
         id="path935" />
      <path
         d="m 203.42402,41.046886 q 1.52483,0 2.29621,0.843138 0.78932,0.825199 0.78932,2.421779 0,0.340842 -0.0179,0.520233 l -0.44848,5.507304 h -2.22445 l 0.43054,-5.399669 q 0.0179,-0.125574 0.0179,-0.358782 0,-0.861077 -0.43054,-1.309554 -0.4126,-0.448478 -1.2378,-0.448478 -1.04046,0 -1.63245,0.645808 -0.592,0.627868 -0.68169,1.740093 l -0.4126,5.130582 h -2.24239 l 0.52024,-6.493954 q 0.0717,-0.735503 0.0717,-1.704215 0,-0.574051 -0.0179,-0.861076 h 2.09888 l 0.0359,1.345432 q 0.46641,-0.753442 1.25573,-1.166041 0.80726,-0.4126 1.82979,-0.4126 z"
         style="font-style:italic;font-variant:normal;font-weight:bold;font-stretch:normal;font-size:17.9391px;font-family:Mulish;-inkscape-font-specification:'Mulish Bold Italic';stroke-width:0.336357"
         id="path937" />
      <path
         d="M 218.17921,37.136162 217.1208,50.33934 h -2.20651 l 0.10764,-1.273676 q -0.44848,0.663747 -1.20192,1.040468 -0.75345,0.376721 -1.6504,0.376721 -1.13016,0 -2.00918,-0.520234 -0.87902,-0.538173 -1.36337,-1.524823 -0.48436,-0.986651 -0.48436,-2.314144 0,-1.488946 0.53818,-2.637048 0.53817,-1.166042 1.50688,-1.79391 0.98665,-0.645808 2.26033,-0.645808 0.98665,0 1.72215,0.39466 0.75344,0.394661 1.16604,1.148103 l 0.43054,-5.453487 z m -5.29204,11.606598 q 1.11223,0 1.75803,-0.861077 0.64581,-0.861076 0.64581,-2.332083 0,-1.345432 -0.59199,-2.045057 -0.59199,-0.717564 -1.68627,-0.717564 -1.14811,0 -1.81185,0.861077 -0.64581,0.861077 -0.64581,2.350022 0,1.309554 0.60993,2.027118 0.60993,0.717564 1.72215,0.717564 z"
         style="font-style:italic;font-variant:normal;font-weight:bold;font-stretch:normal;font-size:17.9391px;font-family:Mulish;-inkscape-font-specification:'Mulish Bold Italic';stroke-width:0.336357"
         id="path939" />
      <path
         d="m 221.59016,45.926322 v 0.107634 q 0,1.327494 0.64581,2.027118 0.64581,0.699625 1.8836,0.699625 1.56071,0 2.7985,-0.950772 l 0.5023,1.524824 q -0.57405,0.538173 -1.50689,0.843137 -0.93283,0.304965 -1.91948,0.304965 -1.38131,0 -2.42178,-0.538173 -1.04047,-0.556112 -1.59658,-1.560702 -0.55611,-1.004589 -0.55611,-2.332083 0,-1.453067 0.57405,-2.58323 0.59199,-1.148103 1.61452,-1.775971 1.04047,-0.645808 2.35002,-0.645808 1.81185,0 2.85232,1.058407 1.05841,1.040468 1.05841,2.942013 0,0.412599 -0.0538,0.879016 z m 2.4756,-3.282856 q -1.91949,0 -2.35003,2.080936 h 4.26951 q 0.0179,-0.986651 -0.50229,-1.524824 -0.52024,-0.556112 -1.41719,-0.556112 z"
         style="font-style:italic;font-variant:normal;font-weight:bold;font-stretch:normal;font-size:17.9391px;font-family:Mulish;-inkscape-font-specification:'Mulish Bold Italic';stroke-width:0.336357"
         id="path941" />
      <path
         d="m 234.72018,45.693113 3.40843,4.646227 h -2.61911 l -2.18857,-3.103464 -2.67293,3.103464 h -2.69086 l 4.16187,-4.682105 -3.22904,-4.37714 h 2.61911 l 1.99124,2.816438 2.43972,-2.816438 h 2.69086 z"
         style="font-style:italic;font-variant:normal;font-weight:bold;font-stretch:normal;font-size:17.9391px;font-family:Mulish;-inkscape-font-specification:'Mulish Bold Italic';stroke-width:0.336357"
         id="path943" />
      <path
         d="m 241.03587,45.926322 v 0.107634 q 0,1.327494 0.64581,2.027118 0.6458,0.699625 1.8836,0.699625 1.5607,0 2.7985,-0.950772 l 0.5023,1.524824 q -0.57405,0.538173 -1.50689,0.843137 -0.93283,0.304965 -1.91948,0.304965 -1.38131,0 -2.42178,-0.538173 -1.04047,-0.556112 -1.59658,-1.560702 -0.55611,-1.004589 -0.55611,-2.332083 0,-1.453067 0.57405,-2.58323 0.59199,-1.148103 1.61452,-1.775971 1.04047,-0.645808 2.35002,-0.645808 1.81185,0 2.85232,1.058407 1.0584,1.040468 1.0584,2.942013 0,0.412599 -0.0538,0.879016 z m 2.4756,-3.282856 q -1.91949,0 -2.35003,2.080936 h 4.26951 q 0.0179,-0.986651 -0.5023,-1.524824 -0.52023,-0.556112 -1.41718,-0.556112 z"
         style="font-style:italic;font-variant:normal;font-weight:bold;font-stretch:normal;font-size:17.9391px;font-family:Mulish;-inkscape-font-specification:'Mulish Bold Italic';stroke-width:0.336357"
         id="path945" />
      <path
         d="m 258.57723,37.136162 -1.0584,13.203178 h -2.20651 l 0.10763,-1.273676 q -0.44848,0.663747 -1.20192,1.040468 -0.75344,0.376721 -1.6504,0.376721 -1.13016,0 -2.00917,-0.520234 -0.87902,-0.538173 -1.36338,-1.524823 -0.48435,-0.986651 -0.48435,-2.314144 0,-1.488946 0.53817,-2.637048 0.53817,-1.166042 1.50689,-1.79391 0.98665,-0.645808 2.26032,-0.645808 0.98665,0 1.72216,0.39466 0.75344,0.394661 1.16604,1.148103 l 0.43054,-5.453487 z M 253.2852,48.74276 q 1.11222,0 1.75803,-0.861077 0.64581,-0.861076 0.64581,-2.332083 0,-1.345432 -0.59199,-2.045057 -0.59199,-0.717564 -1.68628,-0.717564 -1.1481,0 -1.81185,0.861077 -0.6458,0.861077 -0.6458,2.350022 0,1.309554 0.60993,2.027118 0.60992,0.717564 1.72215,0.717564 z"
         style="font-style:italic;font-variant:normal;font-weight:bold;font-stretch:normal;font-size:17.9391px;font-family:Mulish;-inkscape-font-specification:'Mulish Bold Italic';stroke-width:0.336357"
         id="path947" />
      <path
         d="m 266.05026,37.566701 h 4.66417 q 1.91948,0 3.30079,0.717564 1.38131,0.699625 2.09888,2.045057 0.7355,1.327494 0.7355,3.157282 0,2.152692 -0.80726,3.695455 -0.78932,1.542762 -2.33208,2.350022 -1.52483,0.807259 -3.65958,0.807259 h -4.98707 z m 3.82103,10.889034 q 4.64623,0 4.64623,-4.98707 0,-1.973301 -1.04047,-2.99583 -1.02253,-1.022529 -3.03171,-1.022529 h -2.22445 l -0.71756,9.005429 z"
         style="font-style:italic;font-variant:normal;font-weight:bold;font-stretch:normal;font-size:17.9391px;font-family:Mulish;-inkscape-font-specification:'Mulish Bold Italic';stroke-width:0.336357"
         id="path949" />
      <path
         d="m 287.913,41.280095 -0.71757,9.059245 h -2.20651 l 0.10764,-1.255737 q -0.46642,0.663747 -1.21986,1.040468 -0.73551,0.358782 -1.61452,0.358782 -1.1481,0 -2.02712,-0.520234 -0.86108,-0.538173 -1.34543,-1.524823 -0.48436,-1.00459 -0.48436,-2.332083 0,-1.488946 0.53818,-2.637048 0.53817,-1.148103 1.50688,-1.775971 0.96871,-0.645808 2.24239,-0.645808 1.00459,0 1.74009,0.4126 0.75344,0.412599 1.16604,1.166041 l 0.10764,-1.345432 z m -4.9512,7.462665 q 1.11223,0 1.75804,-0.861077 0.6458,-0.861076 0.6458,-2.332083 0,-1.345432 -0.59199,-2.045057 -0.59199,-0.717564 -1.68627,-0.717564 -1.1481,0 -1.79391,0.861077 -0.64581,0.861077 -0.64581,2.367961 0,1.309554 0.59199,2.027118 0.60993,0.699625 1.72215,0.699625 z"
         style="font-style:italic;font-variant:normal;font-weight:bold;font-stretch:normal;font-size:17.9391px;font-family:Mulish;-inkscape-font-specification:'Mulish Bold Italic';stroke-width:0.336357"
         id="path951" />
      <path
         d="m 292.75906,47.020607 q -0.12557,1.59658 1.34543,1.59658 0.4126,0 0.93284,-0.125574 l -0.14352,1.758032 q -0.59199,0.215269 -1.471,0.215269 -1.41719,0 -2.17063,-0.735503 -0.75345,-0.753442 -0.75345,-2.170631 0,-0.269087 0.0179,-0.4126 l 0.32291,-4.17981 h -1.7401 l 0.14352,-1.686275 h 1.72215 l 0.17939,-2.20651 2.29621,-0.753442 -0.23321,2.959952 h 2.42178 l -0.14352,1.686275 h -2.40384 z"
         style="font-style:italic;font-variant:normal;font-weight:bold;font-stretch:normal;font-size:17.9391px;font-family:Mulish;-inkscape-font-specification:'Mulish Bold Italic';stroke-width:0.336357"
         id="path953" />
      <path
         d="m 305.81705,41.280095 -0.71757,9.059245 h -2.20651 l 0.10764,-1.255737 q -0.46642,0.663747 -1.21986,1.040468 -0.7355,0.358782 -1.61452,0.358782 -1.1481,0 -2.02712,-0.520234 -0.86107,-0.538173 -1.34543,-1.524823 -0.48435,-1.00459 -0.48435,-2.332083 0,-1.488946 0.53817,-2.637048 0.53817,-1.148103 1.50688,-1.775971 0.96871,-0.645808 2.24239,-0.645808 1.00459,0 1.74009,0.4126 0.75345,0.412599 1.16604,1.166041 l 0.10764,-1.345432 z m -4.95119,7.462665 q 1.11222,0 1.75803,-0.861077 0.64581,-0.861076 0.64581,-2.332083 0,-1.345432 -0.59199,-2.045057 -0.59199,-0.717564 -1.68628,-0.717564 -1.1481,0 -1.79391,0.861077 -0.64581,0.861077 -0.64581,2.367961 0,1.309554 0.59199,2.027118 0.60993,0.699625 1.72216,0.699625 z"
         style="font-style:italic;font-variant:normal;font-weight:bold;font-stretch:normal;font-size:17.9391px;font-family:Mulish;-inkscape-font-specification:'Mulish Bold Italic';stroke-width:0.336357"
         id="path955" />
      <path
         d="m 310.89632,39.414428 -0.28702,3.498125 h 5.68669 l -0.14351,1.865666 h -5.6867 l -0.44847,5.561121 h -2.27827 l 0.98665,-12.772639 h 8.35962 l -0.14351,1.847727 z"
         style="font-style:italic;font-variant:normal;font-weight:bold;font-stretch:normal;font-size:17.9391px;font-family:Mulish;-inkscape-font-specification:'Mulish Bold Italic';stroke-width:0.336357"
         id="path957" />
      <path
         d="m 323.22947,41.064825 q 0.53817,0 0.91489,0.143513 l -0.17939,2.027119 q -0.50229,-0.21527 -1.16604,-0.21527 -1.16604,0 -1.81185,0.663747 -0.64581,0.645808 -0.71756,1.758032 l -0.39466,4.897374 h -2.24239 l 0.52023,-6.493954 q 0.0718,-1.219859 0.0718,-1.847727 0,-0.484356 -0.0179,-0.717564 h 2.09888 l 0.0359,1.38131 q 0.39466,-0.753442 1.16605,-1.166041 0.78932,-0.430539 1.72215,-0.430539 z"
         style="font-style:italic;font-variant:normal;font-weight:bold;font-stretch:normal;font-size:17.9391px;font-family:Mulish;-inkscape-font-specification:'Mulish Bold Italic';stroke-width:0.336357"
         id="path959" />
      <path
         d="m 333.88193,41.280095 -0.71757,9.059245 h -2.2065 l 0.10763,-1.255737 q -0.46642,0.663747 -1.21986,1.040468 -0.7355,0.358782 -1.61452,0.358782 -1.1481,0 -2.02712,-0.520234 -0.86107,-0.538173 -1.34543,-1.524823 -0.48435,-1.00459 -0.48435,-2.332083 0,-1.488946 0.53817,-2.637048 0.53817,-1.148103 1.50688,-1.775971 0.96871,-0.645808 2.24239,-0.645808 1.00459,0 1.74009,0.4126 0.75345,0.412599 1.16604,1.166041 l 0.10764,-1.345432 z m -4.95119,7.462665 q 1.11222,0 1.75803,-0.861077 0.64581,-0.861076 0.64581,-2.332083 0,-1.345432 -0.59199,-2.045057 -0.59199,-0.717564 -1.68628,-0.717564 -1.1481,0 -1.79391,0.861077 -0.64581,0.861077 -0.64581,2.367961 0,1.309554 0.59199,2.027118 0.60993,0.699625 1.72216,0.699625 z"
         style="font-style:italic;font-variant:normal;font-weight:bold;font-stretch:normal;font-size:17.9391px;font-family:Mulish;-inkscape-font-specification:'Mulish Bold Italic';stroke-width:0.336357"
         id="path961" />
      <path
         d="m 346.90822,41.046886 q 1.43513,0 2.17064,0.825199 0.7355,0.825198 0.7355,2.403839 0,0.358782 -0.0179,0.538173 l -0.43054,5.525243 h -2.24239 l 0.43054,-5.453486 q 0.0179,-0.143513 0.0179,-0.4126 0,-0.843137 -0.35878,-1.237797 -0.35878,-0.4126 -1.09429,-0.4126 -0.93283,0 -1.48894,0.627869 -0.53817,0.627868 -0.62787,1.865666 l -0.39466,5.022948 h -2.24239 l 0.43054,-5.417608 q 0.0179,-0.143513 0.0179,-0.39466 0,-0.861077 -0.35878,-1.273676 -0.35878,-0.430539 -1.09429,-0.430539 -0.95077,0 -1.48894,0.627869 -0.53818,0.627868 -0.62787,1.865666 l -0.39466,5.022948 h -2.24239 l 0.52023,-6.493954 q 0.0718,-1.219859 0.0718,-1.847727 0,-0.484356 -0.0179,-0.717564 h 2.09888 l 0.0359,1.291615 q 0.98666,-1.524824 2.8882,-1.524824 1.00459,0 1.66834,0.4126 0.68168,0.412599 0.96871,1.201919 0.50229,-0.771381 1.29161,-1.18398 0.80726,-0.430539 1.77597,-0.430539 z"
         style="font-style:italic;font-variant:normal;font-weight:bold;font-stretch:normal;font-size:17.9391px;font-family:Mulish;-inkscape-font-specification:'Mulish Bold Italic';stroke-width:0.336357"
         id="path963" />
      <path
         d="m 353.7509,45.926322 v 0.107634 q 0,1.327494 0.6458,2.027118 0.64581,0.699625 1.88361,0.699625 1.5607,0 2.7985,-0.950772 l 0.50229,1.524824 q -0.57405,0.538173 -1.50688,0.843137 -0.93283,0.304965 -1.91948,0.304965 -1.38131,0 -2.42178,-0.538173 -1.04047,-0.556112 -1.59658,-1.560702 -0.55611,-1.004589 -0.55611,-2.332083 0,-1.453067 0.57405,-2.58323 0.59199,-1.148103 1.61452,-1.775971 1.04046,-0.645808 2.35002,-0.645808 1.81185,0 2.85231,1.058407 1.05841,1.040468 1.05841,2.942013 0,0.412599 -0.0538,0.879016 z m 2.47559,-3.282856 q -1.91948,0 -2.35002,2.080936 h 4.26951 q 0.0179,-0.986651 -0.5023,-1.524824 -0.52023,-0.556112 -1.41719,-0.556112 z"
         style="font-style:italic;font-variant:normal;font-weight:bold;font-stretch:normal;font-size:17.9391px;font-family:Mulish;-inkscape-font-specification:'Mulish Bold Italic';stroke-width:0.336357"
         id="path965" />
      <path
         d="m 381.61508,41.280095 -4.26951,9.059245 h -1.95536 l -1.79391,-5.919903 -2.65498,5.919903 h -1.95537 l -2.83437,-9.059245 h 2.24238 l 1.84773,6.36838 2.81644,-6.36838 h 1.63246 l 1.84773,6.422197 2.83437,-6.422197 z"
         style="font-style:italic;font-variant:normal;font-weight:bold;font-stretch:normal;font-size:17.9391px;font-family:Mulish;-inkscape-font-specification:'Mulish Bold Italic';stroke-width:0.336357"
         id="path967" />
      <path
         d="m 383.0289,41.280095 h 2.24238 l -0.71756,9.059245 h -2.24239 z m 2.67292,-4.108054 -0.16145,2.206509 h -2.49353 l 0.16145,-2.206509 z"
         style="font-style:italic;font-variant:normal;font-weight:bold;font-stretch:normal;font-size:17.9391px;font-family:Mulish;-inkscape-font-specification:'Mulish Bold Italic';stroke-width:0.336357"
         id="path969" />
      <path
         d="m 390.12774,47.020607 q -0.12557,1.59658 1.34544,1.59658 0.4126,0 0.93283,-0.125574 l -0.14351,1.758032 q -0.59199,0.215269 -1.47101,0.215269 -1.41719,0 -2.17063,-0.735503 -0.75344,-0.753442 -0.75344,-2.170631 0,-0.269087 0.0179,-0.4126 l 0.3229,-4.17981 h -1.74009 l 0.14351,-1.686275 h 1.72215 l 0.17939,-2.20651 2.29621,-0.753442 -0.23321,2.959952 h 2.42178 l -0.14351,1.686275 h -2.40384 z"
         style="font-style:italic;font-variant:normal;font-weight:bold;font-stretch:normal;font-size:17.9391px;font-family:Mulish;-inkscape-font-specification:'Mulish Bold Italic';stroke-width:0.336357"
         id="path971" />
      <path
         d="m 399.59791,41.046886 q 1.52482,0 2.29621,0.843138 0.78932,0.825199 0.78932,2.421779 0,0.340842 -0.0179,0.520233 l -0.44848,5.507304 h -2.22445 l 0.43054,-5.399669 q 0.0179,-0.125574 0.0179,-0.358782 0,-0.861077 -0.43054,-1.309554 -0.4126,-0.448478 -1.2378,-0.448478 -1.04047,0 -1.63246,0.645808 -0.59199,0.627868 -0.68168,1.740093 l -0.4126,5.130582 h -2.24239 l 1.04047,-13.203178 h 2.24239 l -0.4126,5.256157 q 0.48435,-0.645808 1.2378,-0.986651 0.75344,-0.358782 1.68627,-0.358782 z"
         style="font-style:italic;font-variant:normal;font-weight:bold;font-stretch:normal;font-size:17.9391px;font-family:Mulish;-inkscape-font-specification:'Mulish Bold Italic';stroke-width:0.336357"
         id="path973" />
      <path
         d="m 410.75519,50.33934 h 2.63705 l 0.93283,-4.628288 c 1.05841,-1.59658 2.33208,-2.170631 3.42637,-2.170631 0.66375,0 1.00459,0.0897 1.52482,0.251148 l 0.98665,-2.20651 c -0.48435,-0.233208 -0.86107,-0.358782 -1.65039,-0.358782 -1.41719,0 -2.87026,0.699625 -4.0363,2.152692 h -0.0538 l 0.16145,-1.937423 h -2.15269 z"
         style="font-style:italic;font-variant:normal;font-weight:bold;font-stretch:normal;font-family:'Source Code Pro';-inkscape-font-specification:'Source Code Pro Bold Italic';stroke-width:0.336357"
         id="path975" />
      <path
         d="m 421.3143,45.890443 c -0.59199,2.942013 1.2378,4.664166 4.00042,4.664166 1.18398,0 2.58323,-0.39466 3.71339,-1.040467 l -0.53817,-1.578641 c -0.87902,0.39466 -1.61452,0.609929 -2.42178,0.609929 -1.30955,0 -2.2962,-0.556112 -2.20651,-1.883605 h 5.99166 c 0.0718,-0.21527 0.25115,-0.699625 0.34084,-1.166042 0.48436,-2.421778 -0.57405,-4.269506 -3.31873,-4.269506 -2.36796,0 -4.98707,1.758032 -5.56112,4.664166 z m 2.85232,-0.968711 c 0.46641,-1.148102 1.39925,-1.686275 2.35002,-1.686275 1.20192,0 1.61452,0.681685 1.39925,1.686275 z"
         style="font-style:italic;font-variant:normal;font-weight:bold;font-stretch:normal;font-family:'Source Code Pro';-inkscape-font-specification:'Source Code Pro Bold Italic';stroke-width:0.336357"
         id="path977" />
      <path
         d="m 431.78371,47.863744 c -0.30496,1.506885 0.59199,2.690865 2.3859,2.690865 1.14811,0 2.36797,-0.538173 3.39049,-1.219858 h 0.0718 v 1.004589 h 2.15269 l 1.02253,-5.094704 c 0.53817,-2.726744 -0.71756,-4.018359 -3.2111,-4.018359 -1.52482,0 -3.04964,0.502295 -4.41302,1.20192 l 0.59199,1.722154 c 1.11223,-0.502295 2.00918,-0.825199 2.87026,-0.825199 1.20192,0 1.72215,0.484356 1.6504,1.291615 -4.26951,0.251148 -6.11724,1.255737 -6.5119,3.246977 z m 2.5653,-0.19733 c 0.14351,-0.771381 0.98665,-1.327493 3.62369,-1.471006 l -0.28702,1.471006 c -0.73551,0.484356 -1.48895,0.843138 -2.27827,0.843138 -0.75344,0 -1.18398,-0.269087 -1.0584,-0.843138 z"
         style="font-style:italic;font-variant:normal;font-weight:bold;font-stretch:normal;font-family:'Source Code Pro';-inkscape-font-specification:'Source Code Pro Bold Italic';stroke-width:0.336357"
         id="path979" />
      <path
         d="m 442.6837,45.890443 c -0.59199,2.906135 0.55611,4.664166 2.81643,4.664166 0.89696,0 1.90155,-0.484355 2.69087,-1.130163 h 0.0538 l 0.0179,0.914894 h 2.15269 l 2.51147,-12.575309 h -2.63705 l -0.60992,3.031708 -0.1794,1.381311 c -0.52023,-0.574052 -1.0584,-0.950773 -2.08093,-0.950773 -1.93742,0 -4.16187,1.758032 -4.73592,4.664166 z m 2.7088,-0.03588 c 0.34084,-1.686275 1.32749,-2.475596 2.29621,-2.475596 0.52023,0 0.96871,0.161452 1.36337,0.591991 l -0.71757,3.605759 c -0.59199,0.59199 -1.13016,0.825198 -1.72215,0.825198 -1.09429,0 -1.57864,-0.78932 -1.21986,-2.547352 z"
         style="font-style:italic;font-variant:normal;font-weight:bold;font-stretch:normal;font-family:'Source Code Pro';-inkscape-font-specification:'Source Code Pro Bold Italic';stroke-width:0.336357"
         id="path981" />
      <path
         d="m 452.57906,51.308052 -0.39466,1.973301 h 8.61077 l 0.39466,-1.973301 z"
         style="font-style:italic;font-variant:normal;font-weight:bold;font-stretch:normal;font-family:'Source Code Pro';-inkscape-font-specification:'Source Code Pro Bold Italic';stroke-width:0.336357"
         id="path983" />
      <path
         d="m 464.55539,45.890443 c -0.59199,2.959952 1.21986,4.664166 4.01836,4.664166 1.21985,0 2.67292,-0.412599 3.92866,-1.309554 l -0.7355,-1.668336 c -0.71757,0.448477 -1.59658,0.843137 -2.52942,0.843137 -1.471,0 -2.2962,-0.98665 -1.9733,-2.529413 0.30497,-1.542762 1.5607,-2.529413 3.08553,-2.529413 0.66374,0 1.23779,0.215269 1.82978,0.699625 l 1.54277,-1.632458 c -0.60993,-0.699625 -1.68628,-1.20192 -3.08553,-1.20192 -2.74468,0 -5.48936,1.704215 -6.08135,4.664166 z"
         style="font-style:italic;font-variant:normal;font-weight:bold;font-stretch:normal;font-family:'Source Code Pro';-inkscape-font-specification:'Source Code Pro Bold Italic';stroke-width:0.336357"
         id="path985" />
      <path
         d="m 474.39693,49.191238 c 0.96871,0.753442 2.49354,1.363371 4.09012,1.363371 2.85231,0 4.62829,-1.255737 4.95119,-2.870256 0.30496,-1.542762 -1.09429,-2.206509 -2.76262,-2.672926 -1.18398,-0.322903 -2.15269,-0.59199 -2.04506,-1.130163 0.0897,-0.448477 0.57405,-0.699625 1.68628,-0.699625 0.93283,0 1.72215,0.358782 2.42177,0.843138 l 1.50689,-1.578641 c -0.80726,-0.59199 -2.00918,-1.219859 -3.58782,-1.219859 -2.54735,0 -4.34126,1.130164 -4.66417,2.780561 -0.28702,1.417189 1.16604,2.170631 2.65499,2.601169 1.34543,0.394661 2.24239,0.699625 2.13475,1.237798 -0.0897,0.466417 -0.66374,0.753442 -1.86566,0.753442 -1.18399,0 -2.11682,-0.412599 -3.01377,-1.058406 z"
         style="font-style:italic;font-variant:normal;font-weight:bold;font-stretch:normal;font-family:'Source Code Pro';-inkscape-font-specification:'Source Code Pro Bold Italic';stroke-width:0.336357"
         id="path987" />
      <path
         d="m 487.88015,50.33934 h 3.0317 l 5.04089,-8.897794 h -2.52941 l -2.24239,4.19775 c -0.46642,0.896955 -0.87902,1.811849 -1.32749,2.744682 h -0.0718 c -0.0897,-0.932833 -0.16145,-1.847727 -0.26909,-2.744682 l -0.55611,-4.19775 h -2.65499 z"
         style="font-style:italic;font-variant:normal;font-weight:bold;font-stretch:normal;font-family:'Source Code Pro';-inkscape-font-specification:'Source Code Pro Bold Italic';stroke-width:0.336357"
         id="path989" />
    </g>
    <path
       sodipodi:type="star"
       style="fill:url(#linearGradient31643);fill-opacity:1;stroke:#071159;stroke-width:0;stroke-miterlimit:4;stroke-dasharray:none"
       id="path31635"
       sodipodi:sides="3"
       sodipodi:cx="19.597784"
       sodipodi:cy="77.457909"
       sodipodi:r1="26.137787"
       sodipodi:r2="13.068893"
       sodipodi:arg1="1.5707963"
       sodipodi:arg2="2.6179939"
       inkscape:flatsided="true"
       inkscape:rounded="0"
       inkscape:randomized="0"
       d="M 19.597785,103.5957 -3.0382037,64.389016 42.233771,64.389015 Z"
       inkscape:transform-center-y="3.3909038"
       transform="matrix(1.3679941,0,0,0.51892776,22.691697,22.71965)" />
    <g
       aria-label="action verb"
       id="text31647"
       style="font-size:14.3512px;line-height:1.25;font-family:Mulish;-inkscape-font-specification:Mulish;stroke-width:0.336357">
      <path
         d="m 20.026126,81.391393 v 7.218653 H 18.87803 v -1.305959 q -0.315727,0.674507 -0.961531,1.047638 -0.631452,0.35878 -1.478173,0.35878 -0.961531,0 -1.693442,-0.459239 -0.71756,-0.459238 -1.119394,-1.291608 -0.387482,-0.84672 -0.387482,-1.966114 0,-1.119394 0.401834,-1.966114 0.401833,-0.861072 1.119393,-1.334662 0.731911,-0.47359 1.679091,-0.47359 0.846721,0 1.478173,0.373132 0.631453,0.373131 0.961531,1.047637 v -1.248554 z m -3.358181,6.357581 q 1.061989,0 1.636037,-0.71756 0.574048,-0.731911 0.574048,-2.066572 0,-1.334662 -0.574048,-2.052222 -0.574048,-0.71756 -1.636037,-0.71756 -1.061989,0 -1.664739,0.746262 -0.5884,0.731912 -0.5884,2.052222 0,1.32031 0.5884,2.03787 0.588399,0.71756 1.664739,0.71756 z"
         style="stroke-width:0.336357"
         id="path1036" />
      <path
         d="m 25.301761,88.710505 q -1.047637,0 -1.836953,-0.459239 -0.774965,-0.459238 -1.205501,-1.291608 -0.416185,-0.84672 -0.416185,-1.966114 0,-1.119394 0.430536,-1.966114 0.430536,-0.861072 1.219852,-1.334662 0.803667,-0.47359 1.865656,-0.47359 0.731911,0 1.406418,0.258322 0.688857,0.24397 1.133744,0.688858 L 27.511846,83.02743 Q 26.9665,82.596894 26.449857,82.395977 25.947565,82.19506 25.416571,82.19506 q -1.105043,0 -1.736495,0.746262 -0.631453,0.731912 -0.631453,2.052222 0,1.305959 0.617101,2.03787 0.631453,0.71756 1.750847,0.71756 0.530994,0 1.033286,-0.200916 0.516643,-0.200917 1.061989,-0.631453 l 0.387482,0.861072 q -0.459238,0.430536 -1.162447,0.688857 -0.688857,0.243971 -1.43512,0.243971 z"
         style="stroke-width:0.336357"
         id="path1038" />
      <path
         d="m 30.943129,82.30987 v 3.94658 q 0,0.803667 0.330077,1.133744 0.330078,0.315727 0.932828,0.315727 0.401834,0 0.774965,-0.129161 v 0.990233 q -0.444887,0.143512 -1.004584,0.143512 -1.033286,0 -1.621685,-0.574048 -0.574048,-0.588399 -0.574048,-1.722144 V 82.30987 h -1.406418 v -0.918477 h 1.406418 v -1.851305 l 1.162447,-0.416185 v 2.26749 h 2.066573 v 0.918477 z"
         style="stroke-width:0.336357"
         id="path1040" />
      <path
         d="m 34.410512,81.391393 h 1.162447 v 7.218653 h -1.162447 z m 1.305959,-3.056806 v 1.320311 h -1.420768 v -1.320311 z"
         style="stroke-width:0.336357"
         id="path1042" />
      <path
         d="m 40.815184,88.710505 q -1.018935,0 -1.7939,-0.459239 -0.774965,-0.459238 -1.205501,-1.305959 -0.416184,-0.846721 -0.416184,-1.980465 0,-1.133745 0.416184,-1.980466 0.430536,-0.846721 1.205501,-1.305959 0.774965,-0.459239 1.7939,-0.459239 1.018935,0 1.7939,0.459239 0.774965,0.459238 1.19115,1.305959 0.430536,0.846721 0.430536,1.980466 0,1.133744 -0.430536,1.980465 -0.416185,0.846721 -1.19115,1.305959 -0.774965,0.459239 -1.7939,0.459239 z m 0,-0.961531 q 1.07634,0 1.650388,-0.703208 0.574048,-0.71756 0.574048,-2.080924 0,-1.320311 -0.588399,-2.037871 -0.588399,-0.731911 -1.636037,-0.731911 -1.061989,0 -1.650388,0.731911 -0.588399,0.71756 -0.588399,2.037871 0,1.363364 0.574048,2.080924 0.588399,0.703208 1.664739,0.703208 z"
         style="stroke-width:0.336357"
         id="path1044" />
      <path
         d="m 49.644986,81.219178 q 2.597567,0 2.597567,2.855889 v 4.534979 h -1.162447 v -4.477574 q 0,-1.004584 -0.401834,-1.463822 -0.401833,-0.47359 -1.262905,-0.47359 -1.004584,0 -1.607335,0.617102 -0.60275,0.617101 -0.60275,1.664739 v 4.133145 h -1.162447 v -5.195134 q 0,-1.119394 -0.11481,-2.023519 h 1.105042 l 0.11481,1.291608 q 0.330078,-0.703209 0.990233,-1.07634 0.660155,-0.387483 1.506876,-0.387483 z"
         style="stroke-width:0.336357"
         id="path1046" />
      <path
         d="m 64.550948,81.405744 -3.114211,7.204302 h -1.105042 l -3.071157,-7.204302 h 1.219852 l 2.439704,5.941397 2.468406,-5.941397 z"
         style="stroke-width:0.336357"
         id="path1048" />
      <path
         d="m 71.789558,84.964842 h -5.295593 q 0.01435,1.377715 0.631453,2.080924 0.631453,0.703208 1.822602,0.703208 1.262906,0 2.324895,-0.84672 l 0.387482,0.84672 q -0.473589,0.444888 -1.219852,0.703209 -0.731911,0.258322 -1.506876,0.258322 -1.693441,0 -2.654972,-0.990233 -0.96153,-1.004584 -0.96153,-2.741079 0,-1.105043 0.430536,-1.951763 0.430536,-0.861072 1.205501,-1.334662 0.774964,-0.47359 1.765197,-0.47359 1.43512,0 2.253139,0.94718 0.818018,0.932828 0.818018,2.583216 z m -3.056806,-2.841538 q -0.904125,0 -1.478173,0.545346 -0.559697,0.545345 -0.71756,1.535578 h 4.204901 q -0.08611,-1.018935 -0.60275,-1.54993 -0.502292,-0.530994 -1.406418,-0.530994 z"
         style="stroke-width:0.336357"
         id="path1050" />
      <path
         d="m 76.926169,81.219178 q 0.35878,0 0.660156,0.08611 l -0.0287,1.061988 q -0.330077,-0.114809 -0.760613,-0.114809 -1.047638,0 -1.564281,0.660155 -0.502292,0.645804 -0.502292,1.578632 v 4.118794 h -1.162447 v -5.195134 q 0,-1.119394 -0.11481,-2.023519 h 1.105042 l 0.11481,1.334661 q 0.272673,-0.731911 0.875423,-1.119393 0.602751,-0.387483 1.377715,-0.387483 z"
         style="stroke-width:0.336357"
         id="path1052" />
      <path
         d="m 82.355633,81.219178 q 0.94718,0 1.679091,0.459239 0.731911,0.459238 1.133745,1.305959 0.401833,0.83237 0.401833,1.951763 0,1.119394 -0.401833,1.980466 -0.401834,0.846721 -1.133745,1.32031 -0.731911,0.47359 -1.679091,0.47359 -0.84672,0 -1.478173,-0.373131 -0.631453,-0.373132 -0.961531,-1.061989 v 1.334661 H 78.753482 V 78.047563 h 1.162447 v 4.621087 q 0.315727,-0.703209 0.94718,-1.07634 0.645804,-0.373132 1.492524,-0.373132 z m -0.215268,6.529796 q 1.047638,0 1.636037,-0.731911 0.588399,-0.746262 0.588399,-2.080924 0,-1.305959 -0.588399,-2.023519 -0.574048,-0.71756 -1.636037,-0.71756 -1.07634,0 -1.650388,0.71756 -0.574048,0.71756 -0.574048,2.052222 0,1.334661 0.574048,2.066572 0.574048,0.71756 1.650388,0.71756 z"
         style="stroke-width:0.336357"
         id="path1054" />
    </g>
    <g
       aria-label="specific"
       id="text31647-8"
       style="font-size:14.3512px;line-height:1.25;font-family:Mulish;-inkscape-font-specification:Mulish;stroke-width:0.336357">
      <path
         d="m 202.53429,87.23231 q -1.82261,0 -2.88459,-0.932828 l 0.38748,-0.861072 q 0.5884,0.459238 1.19115,0.660155 0.60275,0.200917 1.34901,0.200917 0.81802,0 1.2342,-0.272673 0.43054,-0.287024 0.43054,-0.818019 0,-0.430536 -0.28702,-0.688857 -0.28703,-0.258322 -0.94718,-0.401834 l -1.21986,-0.287024 q -0.90412,-0.200917 -1.40641,-0.71756 -0.48794,-0.516643 -0.48794,-1.234203 0,-0.947179 0.76061,-1.535578 0.76061,-0.602751 2.00917,-0.602751 0.76061,0 1.43512,0.243971 0.6745,0.24397 1.13374,0.703208 l -0.38748,0.846721 q -1.01894,-0.846721 -2.18138,-0.846721 -0.77497,0 -1.2055,0.301376 -0.41619,0.287024 -0.41619,0.818018 0,0.444887 0.25832,0.703209 0.27268,0.258321 0.86108,0.401833 l 1.21985,0.301376 q 1.00458,0.229619 1.49252,0.71756 0.48794,0.473589 0.48794,1.248554 0,0.932828 -0.76061,1.492525 -0.76061,0.559697 -2.06657,0.559697 z"
         style="stroke-width:0.336357"
         id="path1057" />
      <path
         d="m 210.81627,79.740983 q 0.94718,0 1.6791,0.47359 0.73191,0.473589 1.13374,1.334661 0.40183,0.846721 0.40183,1.966115 0,1.119393 -0.40183,1.966114 -0.40183,0.83237 -1.13374,1.291608 -0.71756,0.459239 -1.6791,0.459239 -0.84672,0 -1.47817,-0.373132 -0.63145,-0.373131 -0.96153,-1.061988 v 4.43452 h -1.16245 v -8.294993 q 0,-1.119394 -0.11481,-2.023519 h 1.10505 l 0.11481,1.392066 q 0.30137,-0.746262 0.94718,-1.148096 0.66015,-0.416185 1.54992,-0.416185 z m -0.21526,6.529796 q 1.06199,0 1.63603,-0.71756 0.5884,-0.71756 0.5884,-2.03787 0,-1.320311 -0.5884,-2.052222 -0.5884,-0.746262 -1.63603,-0.746262 -1.07634,0 -1.65039,0.71756 -0.57405,0.71756 -0.57405,2.052221 0,1.334662 0.57405,2.066573 0.57405,0.71756 1.65039,0.71756 z"
         style="stroke-width:0.336357"
         id="path1059" />
      <path
         d="m 221.86109,83.486646 h -5.29559 q 0.0144,1.377716 0.63145,2.080924 0.63146,0.703209 1.82261,0.703209 1.2629,0 2.32489,-0.846721 l 0.38748,0.846721 q -0.47359,0.444887 -1.21985,0.703209 -0.73191,0.258322 -1.50688,0.258322 -1.69344,0 -2.65497,-0.990233 -0.96153,-1.004584 -0.96153,-2.741079 0,-1.105043 0.43054,-1.951764 0.43053,-0.861072 1.2055,-1.334661 0.77496,-0.47359 1.7652,-0.47359 1.43512,0 2.25313,0.947179 0.81802,0.932828 0.81802,2.583216 z m -3.0568,-2.841537 q -0.90413,0 -1.47818,0.545345 -0.55969,0.545346 -0.71756,1.535579 h 4.20491 q -0.0861,-1.018935 -0.60275,-1.54993 -0.5023,-0.530994 -1.40642,-0.530994 z"
         style="stroke-width:0.336357"
         id="path1061" />
      <path
         d="m 226.66762,87.23231 q -1.04763,0 -1.83695,-0.459239 -0.77497,-0.459238 -1.2055,-1.291608 -0.41619,-0.846721 -0.41619,-1.966114 0,-1.119394 0.43054,-1.966115 0.43054,-0.861072 1.21985,-1.334661 0.80367,-0.47359 1.86566,-0.47359 0.73191,0 1.40642,0.258322 0.68885,0.24397 1.13374,0.688857 l -0.38748,0.861072 q -0.54535,-0.430536 -1.06199,-0.631452 -0.50229,-0.200917 -1.03329,-0.200917 -1.10504,0 -1.73649,0.746262 -0.63146,0.731911 -0.63146,2.052222 0,1.305959 0.61711,2.03787 0.63145,0.71756 1.75084,0.71756 0.531,0 1.03329,-0.200917 0.51664,-0.200916 1.06199,-0.631452 l 0.38748,0.861072 q -0.45924,0.430536 -1.16245,0.688857 -0.68885,0.243971 -1.43512,0.243971 z"
         style="stroke-width:0.336357"
         id="path1063" />
      <path
         d="m 230.73103,79.913198 h 1.16245 v 7.218653 h -1.16245 z m 1.30596,-3.056806 v 1.32031 h -1.42077 v -1.32031 z"
         style="stroke-width:0.336357"
         id="path1065" />
      <path
         d="m 235.70058,79.913198 h 4.43452 v 7.218653 h -1.16245 v -6.300177 h -3.27207 v 6.300177 h -1.16245 v -6.300177 h -1.40641 v -0.918476 h 1.40641 v -0.961531 q 0,-0.875423 0.25833,-1.406417 0.27267,-0.530995 0.87542,-0.774965 0.60275,-0.243971 1.63604,-0.243971 h 0.45923 v 0.904126 h -0.35878 q -0.74626,0 -1.10504,0.129161 -0.34443,0.129161 -0.47359,0.502292 -0.12916,0.35878 -0.12916,1.119393 z m 4.57803,-3.128562 v 1.349013 h -1.44947 v -1.349013 z"
         style="stroke-width:0.336357"
         id="path1067" />
      <path
         d="m 245.39145,87.23231 q -1.04763,0 -1.83695,-0.459239 -0.77496,-0.459238 -1.2055,-1.291608 -0.41618,-0.846721 -0.41618,-1.966114 0,-1.119394 0.43053,-1.966115 0.43054,-0.861072 1.21985,-1.334661 0.80367,-0.47359 1.86566,-0.47359 0.73191,0 1.40642,0.258322 0.68885,0.24397 1.13374,0.688857 l -0.38748,0.861072 q -0.54535,-0.430536 -1.06199,-0.631452 -0.50229,-0.200917 -1.03329,-0.200917 -1.10504,0 -1.73649,0.746262 -0.63145,0.731911 -0.63145,2.052222 0,1.305959 0.6171,2.03787 0.63145,0.71756 1.75084,0.71756 0.531,0 1.03329,-0.200917 0.51664,-0.200916 1.06199,-0.631452 l 0.38748,0.861072 q -0.45924,0.430536 -1.16245,0.688857 -0.68885,0.243971 -1.43512,0.243971 z"
         style="stroke-width:0.336357"
         id="path1069" />
    </g>
    <path
       sodipodi:type="star"
       style="fill:url(#linearGradient31643-1);fill-opacity:1;stroke:#071159;stroke-width:0;stroke-miterlimit:4;stroke-dasharray:none"
       id="path31635-8"
       sodipodi:sides="3"
       sodipodi:cx="19.597784"
       sodipodi:cy="77.457909"
       sodipodi:r1="26.137787"
       sodipodi:r2="13.068893"
       sodipodi:arg1="1.5707963"
       sodipodi:arg2="2.6179939"
       inkscape:flatsided="true"
       inkscape:rounded="0"
       inkscape:randomized="0"
       inkscape:transform-center-y="3.3909048"
       transform="matrix(1.5951106,0,0,0.51892776,193.56042,21.5135)"
       d="M 19.597785,103.5957 -3.0382037,64.389016 42.233771,64.389015 Z"
       inkscape:transform-center-x="1.0752832e-05" />
  </g>
</svg>
